<?xml version="1.0" encoding="UTF-8"?>
<svg viewBox="0 0 1154 866" xmlns="http://www.w3.org/2000/svg">
 <g fill-rule="evenodd">
  <path d="m575 611v-3l3 1q2 1 3 0 1 0 2 0v3q1 3 0 3v1h3q3 0 3 1h-1q-1 1-2 1t-4 3q-2 3-7 3l-5 2h-2v-2h1l-1-1h-2v-2h1l1-1h1l3-3q3-3 3-3 1 0 0-3z" fill="#c5935c" stroke="#c5935c"/>
  <path d="m561 663h2q1 0 1 1t1 1 1 3q-1 2-4 3h-4q0-1-6-1l-5-2q-1 0-1 0l2-2q2-2 7-2t6-1z" fill="#b1ad96" stroke="#b1ad96"/>
  <path d="m568 566q1 0 2 0h2v1q0 1 1 1l1 1q1 1 0 1t-1 1h-26q0-1-3-2l-3-1q1-1 1-3v-2h1v1h2l3 1h4l1-4q1-5 4-4 3 0 3 5 1 5 4 5 3-1 4-1z" fill="#e1cf42" stroke="#e1cf42"/>
  <path d="m630 430h2v2h1q1 0 1-1t1-1l1 1q2 1 3 0t3 1q1 2 2 1l1 5q1 4 3 4t2 1h1q0 1 1 1h1v1l-1 1v2h-2q-1 0-2 1-1 0-1 1v1h-1q-1 0-2 3-2 2-4 3l-2 1v-1h-1v-1h-1v-2h-1t-2-1-3-2q0-1-4-1-3 0-3-7l-1-7h1v-2h1v1h1v1h1l2-1h1v-1l1-1v-1q0-1 0-2z" fill="#ecc259" stroke="#ecc259"/>
  <path d="m568 584v1q0 1-3 3l-3 2 1-6q1-6 3-4t2 4z" fill="#cec0a9" stroke="#cec0a9"/>
  <path d="m544 282h4t2 1l1 1h1l-3 1-3 1q0 1 0 4 0 2-3 3l-3 1h-1q-1 0-1-2v-3q0-1-1-1v-1q1 0 0-1v-2q0-1 1-1 1-1 6-1z" fill="#e2d0c5" stroke="#e2d0c5"/>
  <path d="m562 362h2v13q0 2-2 2-1 1-2-1 0-1-1 0-1 0-5 0-4-1-4 0t-2 1-2-3q-1-3-2-2h-2v1h-1v-1l-1-2v-1l-1-2v-2h1v-1h2v1h1v1h1q0 1 2-2 1-4 4-3 2 0 4 2 1 3 2 3t2-2q2-2 4-2z" fill="#a0573f" stroke="#a0573f"/>
  <path d="m534 192h5l7 1q6 1 6 2v1h-2q-1 0-10 2l-8 2-2 1-3 1h-2v1h1v3h-1q-1-1-1-1 0 1-3 0t-5 1l-3 2h-1t-4-1l-4-1h-6l-1-1v-1h2q2 0 3-1 0-1 0-2h1v-1h1v-2h-9l-1 1-1 1h-2v-2h2v-2h5l10-2q9-2 15-2t11 0z" fill="#ea856a" stroke="#ea856a"/>
  <path d="m752 282l5 1q5 1 8 3t3 3h1v1q1 0 1 1v3q0 1-3 2h-9q-8 0-11-2h-3l-2-1h-2v-4h1v-1h1v-1l1-1 3-1q3-1 4-1 0 0 1 0v-1q1 0 1-1z" fill="#352e1d" stroke="#352e1d"/>
  <path d="m510 408v-1l7 2q7 1 12 4t5 3v4q0 2-2 3-2 0-2 4v4l1 1q-1 1-2 2-1 0-7 0h-6v1h-1v1h1v2q0 1 0 4v4h-2v1h-2v-3h-1v-1h1v-1q0-2-1-1t-2-3-3-4h-1t1-2q0-1-1-2h-1 4v-6q0-4-1-5t-1-5l-1-3h-2v-2h1q1 1 3 1h2v-1l1-1z" fill="#84755e" stroke="#84755e"/>
  <path d="m516 237h3v2q0 1 0 2h-1q0 1-2 3-1 2-4 4l-3 1h-1q0 1 0 1h-2q-1 0-1-1v-1q1 0 1 0v-1l4-5q4-4 6-5z" fill="#e8cec3" stroke="#e8cec3"/>
  <path d="m499 475h1q0 1 0 1h1l1 2q0 2 0 2-1 0-1 1h-1q0 1 0 1h1l1 3q1 3 2 3h1l5 2q4 2 10 4 6 0 7 1h1v1l3 2q3 2 3 3h1v1h1v1q0 1 1 7 1 7 0 8-1 2-3 3-3 1-8 2-6 1-8 0l-2-1v-1h-2l-2-1h-2v-2h-1v-1h1v-1h9q5 0 6 0h1v-1h1v-1h2v-1h1v-6h-1v-1h-1v-1h-1v-1h-2q-2 0-3-2 0-1-4-1-5 1-14-2l-9-2v-1q-1 0-1 0-1 0-2-1 0-1 0-5 2-4 1-9l-1-5v-1q0-1 3-1t4 1z" fill="#eee5df" stroke="#eee5df"/>
  <path d="m600 594v1l-1 1q-1 2-1 2h-1q-1 0-1-1l-1-1-1-2q-1-2 2-2 4 0 4 2z" fill="#937736" stroke="#937736"/>
  <path d="m710 302h2q1 1 1 2v1q0 1-15 5l-14 4h-4v1h-2q-2 1-4 1h-2v-1h1v-1h1l-4-1h-3v-1l3-1q3-1 6-1h3l1-1h1v-1l1-1v-1h2q2 0 2-1l6-1q6-2 12-2 5 0 6 0z" fill="#786652" stroke="#786652"/>
  <path d="m0 433v-433h1154v866h-1154v-433zm536-246l3-1 36 1q36 1 61 4 26 3 39 7 13 2 14 3h1l7 2q7 1 7 2l12 4q12 5 20 9 8 5 11 7 4 3 5 3 0 0 1 0v1l4 3q3 2 5 5t3 4v1q1 0 1 0v1l2 1q2 2 1 8-1 7-1 12v6q0 3 1 11v9q1 0 1 1v1t0 2-7 14q-7 13-14 30l-7 17v3h-1l-6 29q-5 29-6 32l-1 3v5h-1l-4 21q-3 21-4 22v2l-4 24q-3 23-4 24v2l-3 14q-2 13-3 14v1l-2 11q-3 10-3 13v3l-1 2-1 3-4 19q-4 20-4 20t0 1v1q0 1-1 3t-4 7q-3 4-13 12t-16 9l-5 1-1 1-1 1h-8v1h-1v1h-4l-1 1q-1 1-1 1t0 2q1 2-5 4t-21 5l-16 3t0 1h-3q-2 1-14 1h-12l-1-1h-1v-1l-1-2v-2h-1v-1h-1q0-1-6-1l-5-2q-1 0-1 0h-2q-2 0-3 2l-1 3v1h-5l-3-1q-3-1-12-3l-10-2-1-1-1-1h-3v-1h-1q-2-1-6-1-3-2-10-4-6-4-14-9l-8-6q-1-1-1-1h-1t0-1q-1-1-1-1h-1t0-1h-1v-1h-1v-1h-1v-1q-1 0-4-4l-3-5-1-1-1-1v-1l-1-2-1-2v-2q0-3-4-23l-3-20h-1v-3q0-2-7-40l-6-37v-2l-1-2v-3q0-4-3-18l-3-15-1-3-1-2v-4q0-3-2-14l-2-12t-1-3l-1-3v-4q0-3-1-6-1-2 0-4v-2h-1t0-1v-1q0-2-1-6t-4-28l-4-25v-1l-1-1v-5l-1-1v-1h-1v-7l-1-1q-1-2-1-4 0-3-7-20l-7-18q-1 0-1-1h-1q0-1 0-1v-1q0-1-1-1 0 0-1-4l-1-4h-1v-8q0-8 1-10t5-10q4-9 11-14l7-4 12-7q13-7 18-9 6-2 8-2h2q1 0 2-1h1l1-1h4l1-1 1-1 10-2q9-4 17-5t11-2h2l15-2q15-1 22-2h9z" fill="#fefefe" stroke="#fefefe"/>
  <path d="m494 295h6q6 1 6 0h1v1q0 1-1 1l-2 1h8t3 1l3 1h6q7 0 4 1t-3 1h-3l-1 1-1 1h12t-8 2q-8 0-26 0l-18-1v-1h-1v-1h-1v-1h-2v-7l-1-1v-1h1v1h1v1h1v1l5-1q5 0 4-1 0 0 0-1l3 1q3 0 4 1z" fill="#ed9e8d" stroke="#ed9e8d"/>
  <path d="m418 306h1l9 3q10 3 11 4h1q0 1 2 1h1l1 1 2 1 16 4q16 6 16 6h1l1 3q1 3 0 3-2 0-2 1v2q0 2-2 2l-1 1h2l1 1 1 1h3q2 2 2 1 1-1 4-1h3l-1 3q-1 3 0 3h1v1h1v3h-2l1 1 1 1h1v1h-3q-2 1-2 1-1 0-1 1h-1v1h-1q-1 0-1-2-1-2-2-2-2 0-2 2t-4-1l-3-3h-3v2h-1t-1-1v-1t-1 0q-1-1-3-3-3-1-4-1h-2t-2 1q-1 1-1 0-1-1-2-3-2-1-2 0-1 2-3 0t-4-2l-1 1q-1 0-1 1v2h-1v1h-1v-5q0-3-4-9-4-7-10-10-5-3-8-3l-2 1q-1 1-1 1h-1v1h-1v1h-1v-6h-1v-1h1v-3l1-3q1-3 3-3 1 0 1-1t1-1z" fill="#e03940" stroke="#e03940"/>
  <path d="m521 533l1-1 7 1q7 1 7 1 1 0 4 1h3l-1 1q-1 0-1 1v1h-1q-1 1-1 2v1h-1q0-1-2-2t-8-2-8 1l-1 2h-1q-1 0-2-1v-1q0-1 1-2l1-1 1-1h1t1-1z" fill="#eaac4e" stroke="#eaac4e"/>
  <path d="m643 404h2v1h1v-1l2 2q3 0 3 1h-1q0 1 0 1l-1 1q-1 1-1 2v6h1v1h1v1h4q4-1 4-1h1q1 0 1 0v-1h1q1 0 1 2v3q0 1-3 2-3 0-7 2-5 1-6 4l-2 3q-1 1-2-1-2-2-4 0-3 1-3 0v-2t1-1q0-1 0-3 0-1 2-2 2-2 1-2t-1-2v-2h-6v1h-1v1h-1l1 2q1 3 1 4v1l-1 1v2h-1q0 1 0 2v1l-1 1v1h-1l-2 1h-1v-1h-1v-1h-1v1h-1l-1-1h-1q-2 0-2-1h-1v-1q1-1 1-2 0 0 0-4v-5t-2 0h-2q-1 1-1 1h-1v1-5l1-1v-1h2l3-3q2-2 3-3 1-2 3-2t2 0 2-1h5l3-1h5l1-1t1-1z" fill="#edce6e" stroke="#edce6e"/>
  <path d="m462 440l1 1q1 1 1 1l2 1 1 1h3q2 0 3 1h1v1h-3q-3 0-1 4t3 4h1l4 1q3 1 4 2l2 1h2v1h1l1 1q2 1 3 7 1 5 1 6 0 0 0 1v2l1 5q1 5-1 9 0 4 0 5 1 1 2 1 0 0 0 1h1l1 2q2 2 2 5v3h-2q-1-1-3-1h-2l-2 1q-1 1 1 33 2 31 1 32v3h-1v4l-1 1v1h-2v-1l-1-1v-1h-2v-1l-1-2q-1-2-2-7l-1-5v-4q0-4-3-27l-2-22q-1-1-2-4-1-4-7-4l-6-1h-2q-1 0-4-7l-2-6v-7h1v-1h1v-1h1v-1h3l2 1q1 0 2 2 2 3 4 3h1l1 1h2v-3h-1v-1h-1v-2h-1v-1h-1v-3q0-3 1-5 1-3-3-4l-5-1v-1h-3q-2 0-4-1l-2-1 1-4v-3h1q2-1 2-1t1 0v-2q0-1 3-1 2 0 2-1v-2h-1v-2q-1-1-1-2v-1h1v1h1v-1l1-1 1-1v-1z" fill="#372d1f" stroke="#372d1f"/>
  <path d="m490 353h3l4 3q3 2 3 6 0 5 0 6t-2 1h-5q-2-1-3-1h-1v-1q-1 0-1-1t-1-1q0-1 1-6v-5t2-1z" fill="#b34b41" stroke="#b34b41"/>
  <path d="m678 315h3q1 0 1 2 0 1 2 2l1 1h2q3 1 2 1 0 1 0 1h-1q-1 0-8 2-6 2-27 6-21 2-61 4l-39 1h-4q-4-1-9-1h-4l-2-1h-1v-1h1v-2h1l1-1h1v-1l1-1v-1h1v-1h1v-1h2t1 0v-1h1l2-1h4l1 1h3l1 1 3 1q3 1 26 1 23-2 33-2h10l5-1q6-1 6-1l16-3q17-3 18-3h2q2 0 4-1z" fill="#ebd4c6" stroke="#ebd4c6"/>
  <path d="m571 605h1v1h2l1-1h1v2l-1 1v3q1 3 0 3-1-1-5-2-5-2-10 0-4 1-3-2l1-2t1-3l1-2v-1t-1 0l-1-1q0-1 2 0 3 0 4 1 0 2 4 2 3 0 3 1z" fill="#c58a4e" stroke="#c58a4e"/>
  <path d="m550 196h2l8 1q8 1 9 3t3 2h3l2 1h2v4h-2l-2 1h-15v2h1v1h1v5h-1v-4h-3v3h-1v1h-1q-1 0-3-1t-3-2q0-1-2-1l-1-1v-1q-1 0-1 0v-1q0-1 0-2 1-1 0-1t-10-1l-9-1v1h-1v-2h-1v-1h2l3-1 2-1 8-2q9-2 10-2z" fill="#e59e80" stroke="#e59e80"/>
  <path d="m426 263h2q2 1 3 1h1v2l-2 5q-2 5-2 7v2h1t1 1q0 1 0 1t-1 0l-1 1h-1l-1-1h-2l-1-1q-1-1-1-3 0-3 1-8l2-4q-1-1-1-1v-1q0-1 2-1z" fill="#ebddd5" stroke="#ebddd5"/>
  <path d="m556 589v1h2v-2q0-2 1-2 1 1 2 2l1 2 3-2q3-2 3-3 0 0 1 2v2l1 1t2 1q2 0 2-1v-2l1 2q1 1 1 2v13h-1l-1 1h-2v-1h-1q0-1-3-1-4 0-4-2-1-1-4-1-2-1-1 0 1 0 1 1v1h-1q-1-1-5-2t-5-5l-1-5h-1v-1h-2q-2 0-2-1l3-1q2-2 2-2h2q3 0 4 2 2 1 2 1z" fill="#aa6642" stroke="#aa6642"/>
  <path d="m464 388h6v2h1l1 1v3q0 2-7 1l-6-1-9-1q-8-1-10 0t-2 7q0 7 3 10 3 4 3 4l1 1v1h-2v-1h-1v-2h-1v-1h-1v1l-1-1h-1l-2-4q-2-5-1-11t3-8q2-3 11-1 9 0 15 0z" fill="#e5cac4" stroke="#e5cac4"/>
  <path d="m482 427l2-2 8 2q9 3 10 3h3q1 1 1 2-1 2-1 2h-1q-1 0-2 1-2 0-6 6t-7 7l-3 1v-1t-1 0h-1q-1 0-3-1l-2-1h-3l-1-1h-2q-1-1-3-1h-3l-1-1-2-1h4v-2h1v-1l7 2q8 1 10 1h3v-1h1v-1h1v-1h1v-2h1v-1h1v-4h-2q-3 0-5-1l-2-1h-1q-1 0-2-1h-1q0-1 1-2z" fill="#e5d4cd" stroke="#e5d4cd"/>
  <path d="m664 299v-1t1 0v2h1v1h1v1h3v1h1v-1h1l1 2q1 0 6 0t6 1h1q0 1-2 1h-2v1l-1 1v1h-1l-1 1h-3q-3 0-6 1l-3 1h-9q-8 0-12-1l-5-1-1 1h-1v-2h1l1-1h1v-3h-1v-1h-2v-2l13-1q12-1 12-2z" fill="#a28f73" stroke="#a28f73"/>
  <path d="m508 249h1l1 2q0 2-3 6-4 3-4 4h-1q0 1 0 1-1 0-1 1h-1q-1 1-2 1t-2-2-2-2h-1t1-1q0-1 0-1h1l6-4q5-3 6-4h1t0-1z" fill="#cdbeae" stroke="#cdbeae"/>
  <path d="m408 325v-1l2 2q2 2 2 3h1v-1h1v-2q0-1 1-1v3l1 6q0 5 1 6v1h-1q-1 0 2 21 2 21 2 25t1 8v4l-1 1q0 1 0 2v5l-1 3-1 2-2-1h-1v-2l-1-2v-1q0-2-2-4l-1-2q-1-1-1-1v-1q0-2-1-6t-4-28l-4-25h1v-3h2v-2q0-1 1-4l1-3v-1h1v-1h1zm6 15t0-1 0 1z" fill="#e06e63" stroke="#e06e63"/>
  <path d="m538 541h1v1q1 1 1 1 0 1-3 1h-4v-1h-1v-1h-5v1h1l2 2q3 3 6 5 4 2 4 3t1 4v3q-1 0-1 0v1t-1 1q-1 0-1 0v1h-6q-5-1-8-2l-3-1-1-3q-2-3 2-3 2 1 4 2 1 2 4 2h3v-2l-1-1v-1h-2l-1-1-1-1h-1q-1 0-4-3l-3-3-1-3v-3l1-2q2-2 8-1t8 2 2 2z" fill="#816737" stroke="#816737"/>
  <path d="m608 582v-3h1v1q0 2 1 2h1v-1h1v3q1 3 2 3 2 0 2 2 1 1 2-2 2-3 2-3t0 1h1l-1 7q0 6-2 8-1 2-2 2t-2 4-2 4q-2 1-1 4 1 2 0 2t-3 2q-1 2-3 3-3 0-3 1v2h1v1h1v2h1v1h-1v1l-1-1h-1v-1l-1-3-1-2v-2q0-2-2-2l-2 1v-1q0-1 2-10 2-8 1-9l-1-1t1-2l1-1t1-4l1-4v-2h1v3q1 2 1 2v1h1v-1h1v-1l1-2q1-2 1-5z" fill="#cfa671" stroke="#cfa671"/>
  <path d="m742 286h1v1q0 1-1 1h-1v1h-1v4h2l2 1h3q3 2 11 2h7t-7 1l-7 1h-6q-6 0-11 2h-4v1h-2q-2 1-8 2l-7 2v-1q0-1-1-2h-2 1l1-1 2-1h2v-1h1v-1l3-1q4-2 4-3 0-2 4-2 5 0 7 0h2v-1h1v-3h2v-1q1-1 2-1z" fill="#74634f" stroke="#74634f"/>
  <path d="m608 418h4v2q0 2 1 1h1l-1 3q-1 2-3 1t-2 3q0 5 2 4 1 0 1-2 1-1 1 0t1 1 2 3q1 2 1 2 0-1 1-2v-1h1q0 1 2 1h1l1 1h1v1h-1l1 7q0 7 3 7 4 0 4 1 1 1 3 2t2 1h1v2h1v1h1v3l-1-1v-1h-1q-2 0-2 3-1 2-2 2-1 1-2 2 0 1-3 1-3-1-4 2l-1 3q0-1-2-2l-3-1q-1-1-1-2t-3-2q-2-2-9-1l-8 1v-1l-1-1q-1-1-1-1 0-1 0-1t1-4-2-6-5-1h-3q0-1-1-1t-1-3-1-8l-1-5 2-1q2-1 3 0 1 0 1-1 1-1 1-4v-2h2l1 1h1q0 1 0 1h1t0 1h1v4h2v-4l1-1q1-1 1-6v-4h3q3 0 3 1 1 1 4 1z" fill="#e9a641" stroke="#e9a641"/>
  <path d="m552 278v-1l28 3q28 2 30 3h5q2 1 5 1h2v1l1 1v1h-1q-2 1-5 1h-4q-1 0-17-2-17 0-29-2l-11-2h-1v-1h-1v1h-4t2-2q2 0 1-1-1 0-1-1z" fill="#b6a088" stroke="#b6a088"/>
  <path d="m538 290v2q0 2 1 2h1q0 1-2 2-1 0-1 1t-3 1q-2 1-2 2 0 2-4 2h-3t3-1-4-1h-6l-3-1q-3-1-3-1l4-2q4-1 3-3 0-1 0-2h9q10 0 10-1z" fill="#e1b09c" stroke="#e1b09c"/>
  <path d="m529 257v-1h1q2 0 2 2v1h-1q0 1-3 3l-2 3q-1 1-1 1h-7v-2h1v-1h1v-1l4-2q3-2 4-3 0 0 1 0z" fill="#e99d8a" stroke="#e99d8a"/>
  <path d="m665 313h5l4 1h-1v1h-1v1q-1 0-18 3l-16 3h-2v-2q0-1 1-2v-1q1 0 1-1h5l10-2q10 0 12-1z" fill="#695641" stroke="#695641"/>
  <path d="m501 482v-1l5 1q4 2 12 5t8 4h1v1q1 0 1 2v1h-1q-1-1-7-1-6-2-10-4l-5-2h-1q-1 0-2-3l-1-3z" fill="#ef6b69" stroke="#ef6b69"/>
  <path d="m472 262l1-1 1 1q2 0 2 0v2q0 2 0 2h2q0 1 0 3-1 3-1 3h-1t0 1q-1 1-7 1-7 0-4-5 2-5 5-5 2 0 2-2z" fill="#ebb5a3" stroke="#ebb5a3"/>
  <path d="m473 596v-1l5 1q4 2 18 6 13 6 14 6h2l2 1h3v2q1 2 1 3h-2q-2 0-12-3l-10-2q-1-1-8-4l-8-3v-1h-2q0-1 0-1-1 0-2-1l-1-1v-2z" fill="#e6b922" stroke="#e6b922"/>
  <path d="m384 286l-4-8 10 8q10 8 10 8h1q1 0 1 0v2h-2q-2-1-2 8 0 8 1 17v9h-1v-7l-1-1q-1-2-5-14-4-13-8-22z" fill="#d7b4a0" stroke="#d7b4a0"/>
  <path d="m516 218h2q2 0 4 2 1 3-3 3-4-1-4-3t1-2z" fill="#cea751" stroke="#cea751"/>
  <path d="m438 204h2q0 1-2 2-2 2-3 4t-7 4-6 4-2 3q-3 1-4 2 0 2-1 3t-3 2q-1 2-4 6l-4 4v1l-1 1v2h-2v-1h-1v-7h-1l-1-1h-1v-1q1-2 1-3 2-1 2-4v-3l12-7q13-7 18-9 6-2 8-2z" fill="#e7a28e" stroke="#e7a28e"/>
  <path d="m764 242h1t1 1l2 1q2 2 1 8-1 7-1 12v4q-1 0-2 0 0-1-2 4-2 4-3 4t-1 1-2 2l-2 1h-1l-1 1q-2 1-2 1-1 0-1 1h-1q0 1 0 1-1 0-4 1l-3 1h-1v1h-1l-1 1h-2v-1l1-1h1v-5q0-1 1-2 1 0 9-17t9-20 3-3 1 1q1 2 1 2z" fill="#8e7e65" stroke="#8e7e65"/>
  <path d="m527 187h7v1q-1 0 2 1l4 1h-2v1l1 1h-5q-5 0-11 0t-15 2l-10 2h-2q-2 0-3 2l-1 1v1t-1 0h-1v-1q0-1 1-3l1-3h1l1-1h-4v-1l15-2q15-1 22-2z" fill="#ebaa97" stroke="#ebaa97"/>
  <path d="m527 205v-1l9 1q9 1 10 1t0 1q0 1 0 1 0 1 1 2v1h-1q-1-1-5 0t-4 2q-1 2-4 2-4 0-4-1l-1-1v-1q0-1-1-1v-3q-1-2-1-2v-1h1z" fill="#ce965c" stroke="#ce965c"/>
  <path d="m687 578v-2l3 1q4 1 5 1h1v-1h1v-1h1v7l-4 19q-4 20-4 20t0 1h-1q-1 1-2 1t-1 1q-1 1-4 5-4 4-5 4t-1 1-2 2l-1 1h-2v1h-1v-1h-2v1h-1v1h-1v1h-1v-2l1-1v-1h1v-1h1v-1l1-1q1-1 1-4 2-3 4-13t7-19q4-10 5-10t3-4q1-4 0-4t-2-2z" fill="#cfa184" stroke="#cfa184"/>
  <path d="m718 473v-1h1l-4 24q-3 23-4 24v2q-1 0-3-2t-2-7l1-5v-2q1-1 2-12 1-12 1-12l-1-1q0-1 1-1h1v-1h1l2-3q4-3 4-3z" fill="#c3b090" stroke="#c3b090"/>
  <path d="m665 561h1v3q0 4-1 6l-1 2v6h-2v-1l-1-4v-4h-3v-1h-1q-1 0-1-1v-1l4-2q4-2 5-3z" fill="#cab68e" stroke="#cab68e"/>
  <path d="m689 623h1v1q0 1-1 3t-4 7q-3 4-13 12t-16 9l-5 1-1 1-1 1h-7v-1h1v-1h2v-1h1v-1h3l7-4q6-4 8-6 0-1 1-2v-1h1v-1h1v-1h1v-1h2v1h1v-1h2l1-1q2-1 2-2t1-1 5-4q3-4 4-5 0-1 1-1t2-1z" fill="#dcd4c2" stroke="#dcd4c2"/>
  <path d="m516 287l1 2q1 1 1 2h1q0 1 0 2 1 2-3 3l-4 2h-8l2-1q1 0 1-1v-1h1l2-1v-2h-1q-1 0-3-1l-3-1-1-4q0-4 10-5 9 0 8 2-1 3-2 3-2 0-2 1z" fill="#e0d8ce" stroke="#e0d8ce"/>
  <path d="m629 316v1l-1 3q-1 4-1 4h-10q-10 0-33 2-23 0-26-1l-3-1-1-1h-2v-1h-1l-1-1-1-1h-1v-2h8l12 1q12 0 12-2-1-1 4-3 6 0 9 0 3 2 19 1t16-1q0 1 1 2z" fill="#fa6260" stroke="#fa6260"/>
  <path d="m502 290h1l3 1q2 1 3 1h1v2l-2 1h-2q0 1-6 0h-5l-1-1t4-2q3-2 4-2z" fill="#a18f79" stroke="#a18f79"/>
  <path d="m524 207l1-1h1t1 2v3h-1q-1 0-1 1-1 1-2 1-2 1-3-2-2-2 1-2 3-1 3-2z" fill="#d4ad60" stroke="#d4ad60"/>
  <path d="m568 223l3-1h1l5 1q5 1 6 1v2h1l2 1h3v1q-1 0-7 6l-7 6h-5q-2 0-7 3l-5 3h-2q-1 0-1-4 0-3-9-3h-11v-1h6l4-2q3-2 4-3 0-1-1-2-2-1 2-2 3-1 6-1 2 0 4-1t3-2l1-1h1l3-1z" fill="#e68f74" stroke="#e68f74"/>
  <path d="m590 625l1-8h1q1 0 1 1 0 2 1 2 2 0 2-1 1-1 1-1h1q2 0 2 2v2l1 2 1 3v1h1l1 1v2q0 1-2 2t-2 3q0 3-2 4t-1 4q1 2 0 3 0 1-2 2-1 1-2 1v1h-1v3h1v1h1v1h2v1h-2l-1-1h-2l-1-1q-2-1-8-3l-6-2h-2l-1-1-1-1h-1v-1h1l1-1h2v-2h1q1 0 2-3 2-3 4-3 1 0 2-2 2-2 4-2t2-9z" fill="#d6ae83" stroke="#d6ae83"/>
  <path d="m638 305h4v3h-1v1q-1 0-1 1-1 0-1 1v1q-1 0-1 2v2q-1 0-1 1v1q-1 1-1 2v2h2t-6 1l-5 1t1-4l1-3h1v-2l1-1 1-1v-2l1-1 1-1v-2h1l1-1q0-1 2-1z" fill="#f0d869" stroke="#f0d869"/>
  <path d="m472 279h3q1 1 5 1h4v4q0 4-1 4l-1 2q0 1 0 2 1 0 3 1h2q0 1 0 1 1 1-4 1l-5 1v-1h-1v-1h-1v-1h-2q0-1-2-5-3-4-6-4l-2-1v-1h-4v-1h-1v-1h4q4 0 4-1t1-1 4 1z" fill="#e2d2c6" stroke="#e2d2c6"/>
  <path d="m702 205h2l12 4q12 5 20 9 8 5 11 7 4 3 5 3 0 0 0 1h1q0 1 1 2 0 1 1 1t0 1q-1 0-3 3-2 4-7 5t-7 6-6 7q-4 1-7 7t0 7q3 2 3 6v4h-1v1h1v1h1l2-2q2 0 2-1h1v-1h2l-1 3q-1 3-1 3t0 2v2h4l1-1h1v2h-1v1h-1v3h-1v1h-2q-2 0-7 0-4 0-4 2 0 1-4 3l-3 1v1h-1v1h-2l-2 1-1 1h-1q-1 0-6 0-6 0-12 2l-6 1h-1q-1-1-6-1t-6 0l-1-2h-1v1h-1v-1h-3v-1h-1v-1h-1v-1h1l1 1h3v-1l1-2q1-1 4-3 3-1 8-6 5-6 8-6t4 2 3 2 3-3 3-5q2-1 6-9t6-12 4-8 3-7q1-2 1-3v-7h-2q-3 0-4 1-2 1-4 0t-2-3q0-3-4-4-4 0-6 0t-6-1l-3-1v-7l1-1v-2l3-4q2-4 5-5z" fill="#a1937a" stroke="#a1937a"/>
  <path d="m441 310l1-1 2 1q2 0 4 1h2q0 1 0 1h4l14 4q14 2 19 2t5 1q1 1 6 1t10 1h6l-1 2q-1 1 1 2l1 1h4l1 1 1 1h-1v2h-1v1h1v1h-6l-5-1q-5-1-17-3l-13-2h-1t-16-6l-16-4-2-1-1-1h-1q-2 0-2-1v-1q0-2 1-2z" fill="#eac1b5" stroke="#eac1b5"/>
  <path d="m509 457v-1l8 3q9 3 9 5 2 2 1 3 0 1 1 1t1 1q1 0-1 0-2-1-2 1-1 1-2 0h-2t-1-4q-1-3-3-4l-3-2h-1q-1 0-4-1l-2-1t1-1z" fill="#998b76" stroke="#998b76"/>
  <path d="m580 540v-1h2l3 1h3q2 0 2 0h-1q-1 0-1 1l-1 1-1 12q-1 12 1 12 1 0 3-4 2-5 2-4 0 0 1 1v5l-1 3v3h-1v1h-1v1h-13l-2-1h-2q0-1 1-1t0-1l-1-1q-1 0-1-1v-1t4 0q3 1 4-12 2-13 1-14h-1z" fill="#d8c544" stroke="#d8c544"/>
  <path d="m408 256h2q2 1 2 2 0 2 0 2v2q0 1 2 1l1 1h3q2 0 4 1h2q0 1 0 1h1l-2 4q-1 5-1 8 0 2 1 3l1 1h2l1 1h1l3 1q3 2 15 1t15-1 3-1l2 1q3 0 6 4 2 4 2 5h1v1l1 1v7h2v1h1v1h1v1h-4q-3 1-4 1-2 0-11 1l-9 1h-1v1h-1v1t1 1v1h-1q-1 0-4-2l-4-1h-2q-1-1-20-7l-18-7v-1t-1 0h-1t-9-7l-9-7q0-1-1-1v-1q-1 0-1 0v-1q0-1-1-1 0 0-1-4l-1-4v-1h1v-8h7q7 1 9 0 3-1 7-1h4l1-1 2-1z" fill="#f38576" stroke="#f38576"/>
  <path d="m516 544v-5q1 1 2 1h1v3l1 3 3 3q3 3 4 3h1l1 1 1 1h2v1l1 1v2h-3q-3 0-4-2-2-1-4-2-4 0-2 3l1 3h-1v2h-1v-1h-1v-1h-1v-1h-1v-1l-1-2q-1-3 0-6l1-2v-4z" fill="#ddb037" stroke="#ddb037"/>
  <path d="m458 346h1l-1 4q0 3-1 3h-1q0-1-1 1t-2 2-3-2q-2-3-2-2 0 2-2 2l-1 1v-1l-1-1v-3q0-3-1-5v-2l1-1q2 0 4 2t3 0q0-1 2 0 1 2 2 3 0 1 1 0 2-1 2-1z" fill="#81241e" stroke="#81241e"/>
  <path d="m545 551v-12l4 1q4 0 4 4v5h4q4 0 4-4t2-4q2-1 2-1h2q2 1 2 11-1 10-1 13v2q-1 0-4 1-3 0-4-5 0-5-3-5-3-1-4 4l-1 4h-4l-3-1h-1v-1l1-12z" fill="#897145" stroke="#897145"/>
  <path d="m605 203h1l-1 3q-1 2 8 4 9 1 8 1v-1h1t3-1h3q0 1-2 1-1 0 0 2 0 2-1 8t-5 9l-3 3q-1 0-1-2-1-2-2-2t-1-1q-1-1-7-1t-12 0l-5 1h-3l-2-1h-1v-1h1v-1h1v-1h1v-1h2l4-4q4-4 7-9t4-5 2-1z" fill="#d6c17f" stroke="#d6c17f"/>
  <path d="m527 488v-2l3 3q4 3 6 4 3 1 4 1t4 2q4 2 8 1t4-2q1-1 2-1l2 2q1 0 2 1v2h-1v1h-1v1h-1v1h-8q-7 0-11 0l-3-2h-1v-1l-1 1v1h-1q0-1-3-3l-3-2v-2q0-2-1-2v-1q1 0 0-3z" fill="#eedbd4" stroke="#eedbd4"/>
  <path d="m462 250h6q5 1 5 2 1 1 1 2l-1 1v1h10l2 2q2 2 3 2l2 2q2 1 1 1 0 1-1 1h-10q-1 0-2-1h-2q0-1-1-1h-1q0-1-1-1h-1q0-1-2-1-1-2-4 0-4 2-6 6t-3 7 1 4q0 1 0 2l-1 1h-1q-2 0-14 1h-12v-1h-2v-2q0-2 2-7l2-5v-2h-1q-1 0-3-1h-1q0-1-3-1h-4v-4h2l1-1h1l11-1q11 0 11-2 1-2 5-3t7-1q4 0 4 0z" fill="#ab9a82" stroke="#ab9a82"/>
  <path d="m648 573v1l-1 5q-1 5-1 5t-1-1q-1 0-1-3t1-6q1-2 2-2t1 1z" fill="#d6cbb1" stroke="#d6cbb1"/>
  <path d="m741 356v2l-6 29q-5 29-6 32l-1 3v5h-1v-3q-1-3-1-12 0-8 2-33l2-24h1v2l1 2v2h1v-1h1v-1h1v-1h1v-1h1v-1h1l1-2q1-1 2 2z" fill="#d1a089" stroke="#d1a089"/>
  <path d="m693 218v6l3 1q4 1 6 1t6 0q4 1 4 4 0 2 2 3t4 0q1-1 4-1h2v7q0 1-1 3-1 3-3 7t-4 8-6 12-6 9q-2 2-3 5t-3 3-3-2-4-2-8 6q-5 5-8 6-3 2-4 3l-1 2v1h-3l-1-1h-1v-1q-1 0-1 0-1 0-3-1l-2-1h-2l-1-1h-2v-3l4-6q4-6 4-8v-1l1-1 1-2v-2l6-10q6-11 13-24t8-16q1-4 2-4z" fill="#b7ab92" stroke="#b7ab92"/>
  <path d="m456 440h2l-1 1q0 1 1 2v1q0 1 1 2v2t-5 1h-5v-1q-1 0-1 0h-1q-1 0-2-3-1-2 1-3h1l1-1q2-1 5-1t3 0z" fill="#cbc3b7" stroke="#cbc3b7"/>
  <path d="m542 536l1-1h11q10 1 12 0h1v1h-1l2 1 2 1q-1 0-3 1l-2 1t-2 1q-2 0-2 4t-4 4h-4v-5q0-4-4-4l-4-1q0-1-2-1h-2v-1q0-1 1-1z" fill="#ebcf59" stroke="#ebcf59"/>
  <path d="m657 208v2q-1 0-1 3t-2 6-5 5-3 6q-2 4-10 14l-8 11h-1v1h-4l-3-1h-2v-3h-1v-1h1v-1q0-2 0-2v-3h-1v1h-1v-2q0-1 2-6v-5 1t-1-1v-1l3-3q4-3 5-9t1-8q-1-2 0-2 2 0 2-1 0 0 1-1 0-2-1-2h-1v-1h-1v-2h1l1 1h6q6 0 8-1 3-1 6-1 4 1 6 2 2 2 3 4z" fill="#efbaa1" stroke="#efbaa1"/>
  <path d="m423 330v-4h2l1 1q1 0 2 3 2 2 2 2v4q0 4-2 4t-3-4l-2-3v-3z" fill="#f2d0c8" stroke="#f2d0c8"/>
  <path d="m533 375l2-1h1q1 0 3 0 2 1 2 0v-1h1v-1h2q1-1 2 2 0 3 2 3t2-1 4 0q4 0 5 0 1-1 1 0 1 2 2 1 2 0 2-2v-2h3q3 1 4 1t2 1 5 5q4 3 5 6 0 2 1 2 2 1 2 5t0 7v5h1v1h1t-2 2l-2 2v2l-1 1v1l-2 4q-1 4-2 4v1h1v5q0 4 0 4h1l1 5q1 5 1 8t1 3 1 1l-2 3q-1 3-1 4 0 2 0 3v1l3 1q2 1 4 2h2v2h-1l-1 1h1v1h1v1h-1q-1 0-1 2-1 1-3 2h-3v1h-1v1h-1v1h1v2h-1q-1 1-1 1l-1 1-1 1-1-2q-1-2-2-4-2-2-9-4l-6-1h-2q-1-1-4-2-2-2-8-3-5-2-14-6l-10-4h-2v-4h1v-1h1v-1l2-4q1-4 6-5 4-1 4-2 0 0 1-1v-1h1v-6h1v-1q1 0 1-1 2-1 2-7 0-5-1-6-1-2-8-6t-20-7l-13-3q0-1-3-6l-3-6v-1h-1v-1h-1v-2h1v1h1v1t1 0v1h1v1l1-1v-1h2v-1h-1v-1l1-1 1-1 1-1h1v-3h-1v-1h1v-1h4q3 0 10 0 6-2 6-1 1 1 2 1h1v-1h1v-3q1-1 4-1 2 0 2 3 1 3 3 3z" fill="#f15e55" stroke="#f15e55"/>
  <path d="m465 247v-1l7 2q7 2 7 3l1 1v1q1 1 2 1l-2 1q-2 1-2 1h-5v-1l1-1q0-1-1-2 0-1-5-2h-5v-1q0-1 1-1t1-1z" fill="#e5cec2" stroke="#e5cec2"/>
  <path d="m458 246h7v1q0 1-1 1t-1 1v1h-1t-4 0q-3 0-7 1t-5 3q0 2-11 2l-11 1v-2l8-1q7 0 10-3t6-3q3-2 10-2z" fill="#e3c9bd" stroke="#e3c9bd"/>
  <path d="m449 552l1-2v3h1v1h1v4q2 3 2 4v1l-1 29q-1 28-1 32v5l-1-1-1-1v-1l-1-2-1-2v-2q0-3-4-23l-3-20v-4h1l1 1h1v1h1v1h2v-7h1v-15l1-2z" fill="#8e826a" stroke="#8e826a"/>
  <path d="m752 229v-1l4 3q4 3 7 7 3 3 3 4v1h-1q-1 0-2-2t-1-2q-2 0-3 3t-9 20-9 17q-1 1-1 2v4l-1 1h-1v1h-2l-2-1v-2q0-2 0-2t1-3l1-3h-2v1h-1q0 1-2 1l-2 2h-1v-1h-1v-1h1v-4q0-4-3-6-3-1 0-7t7-7q4-2 6-7t7-6 7-5q2-3 3-3 1-1 0-1t-1-1-1-1-1-1z" fill="#b4ab97" stroke="#b4ab97"/>
  <path d="m401 294l19 7q19 7 20 8h2l-1 1q-1 0-1 2v1h-1q-1-1-11-4l-9-3t-5-4l-6-2-1-1q-1-1-3-2l-2-1q-1 0-1-1v-1z" fill="#e7ad9c" stroke="#e7ad9c"/>
  <path d="m643 542v-2h1q1 0 2 1h1v9q0 8 1 9t1 1h-1l-1 1-1 1h-3v1h-1q0 1 0 1-1 0-4 0l-3-1q0-1 2-2 1-1 3-5 1-3-1-3-2 1-4 3t-5 2h-2l-1-1-1-1v-6l1-2 1-1v-1l1-1v-1h3q4 0 7 0t3 0 1-2z" fill="#e1cd4e" stroke="#e1cd4e"/>
  <path d="m541 589h2q0 1 2 1h2v1h1l1 5q1 4 4 5t5 1h1t1 1l-1 2q-1 3-1 3l-1 2q-1 3 3 2 5-2 10 0 4 1 5 2 0 0-3 3l-3 3h-1l-1 1h-1v2h2q1 0 1 1v1q-1 0-1 1 0 0-2 1-1 1-4 3l-2 3-1 1-1 1v1h-2v1h-2v-1h-1q-1 0-3-2t-9-13l-8-11v-3l1-3v-2q0-2 3-8 3-5 4-5z" fill="#ab5636" stroke="#ab5636"/>
  <path d="m581 418l2-4v2h2l1-1h2v2h2q1 1 2 0v3q0 4 1 5v1h-1q-1 0-2-1v-1h-2v2q0 3-1 4 0 1-1 1-1-1-3 0l-2 1h-1t0-4v-5h-1v-1q1 0 2-4z" fill="#d1773e" stroke="#d1773e"/>
  <path d="m472 261h1q0 1 1 1 0 0 1 1h3q1 1 2 1 0 0-2 1l-1 1-3-1q-2-1-4-1-3 0-5 5-3 5 4 5 6 0 7-1 0-1 0-1h1l1 3q0 3-2 3t-2 1h-2q-3-1-4-1t-1 1-4 1h-6l1-1q0-1 0-2-2-1-1-4t3-7 6-6q3-2 4 0 2 0 2 1z" fill="#e6d5ca" stroke="#e6d5ca"/>
  <path d="m494 204h3t1 1v1q0 1 3 1l3-1 4 1q4 1 4 1h1v1q-1 1-1 1 0 1-2 5t-5 4l-3 1t-1-1-2-1-3-2h-1l-1-1-1-1h-2v-1h-1v-2q0-2 0-3v-2h1v-1h1q0-1 2-1z" fill="#d4a569" stroke="#d4a569"/>
  <path d="m451 512h1l2 1 2 1h1l1 1q2 1 2 4t1 5l1 2v-1h1q0-1 1-3v-2h2v3l1 1v2h2v7l-1 5v4h-1q-1 0-2 0t-4-1q-2-1-5 0h-2v3h-1l-1-1v-1q0-1-3-6l-3-5v-1t-1 0v-1l1-1v-2h1v-1h1q0-1 0-1 1 0 0-6v-5h2l1-1z" fill="#ea6931" stroke="#ea6931"/>
  <path d="m544 255v-1l6 1q7 1 8 1h2v2l1 1 1 1v1l-1 1q-1 2-3 4l-3 3v2h-1q0 1-1 2t-5 1l-3 1h-1q-1 0 2-4 4-5 5-5t1-1v-7h-2q-3 0-4 0h-3t-1 1h-1v-1q0-1 1-2 2 0 2-1z" fill="#e3cbbe" stroke="#e3cbbe"/>
  <path d="m532 431v-1l1 1 1 1v3h1v1q-1 1-1 1 0 1-4 2-5 1-6 5l-2 4v1h-1v1h-1v4h2l10 4q9 4 14 6 6 1 8 3 3 1 4 2h2v1t-3 1l-2 1v1h-1l-1-1h-2l-1-1q-1-1-10-3-8-2-8-1t-1 1-1 0l-1 1h-1v-1t0-1-2-3q-1-2-8-5l-8-2v-1h-1v-2l1-2v-1q0-1 2-3l1-1h1v-1h2v-4q0-3 0-4v-2h-1v-1h1v-1h6q6 0 7 0 1-1 2-2h1v-1z" fill="#eee4dc" stroke="#eee4dc"/>
  <path d="m652 566h-1 5v1q0 1 1 1h1v1h1v1l1 1-1 3q-1 2-1 3v1h-1v1h-1v1h-1l-1 1h-1v-1l1-1v-11q0-1-2-2z" fill="#cebc9a" stroke="#cebc9a"/>
  <path d="m475 608l2-7h1v1l8 3q7 3 8 4v2q0 3 2 3 1 0 5 12t5 12 3 11q3 11 3 13v4h-1l-3-1h-4q-2-1-6-1-3-2-10-4-6-4-14-9l-8-6v-1t-1 0q-1-1-1-1v-1t-1 0v-2l-1-1v-3q0-4 2-8 0-3 1-8l1-6h2v2l1 2q1 1 1 2v1h1v1h2v-3q1-3 2-11z" fill="#302b1d" stroke="#302b1d"/>
  <path d="m460 501l6 1q6 0 7 4 1 3 2 4h-1q-2 0-2 3v3h-1v1h-1v-5q0-4-6-4-5 0-6-2l-2-2v-1q1-1 2-1 2 0 2-1z" fill="#e2cbc3" stroke="#e2cbc3"/>
  <path d="m519 239v-2h8l3 1q4 0 4 1h2v1h2v1h1v1h2v1h1v1h1q1 1 0 4-1 4-1 5v1h2v1q0 1-1 2l-1 1q-1 0-1 1-1 0-1 1t-5 6l-4 6h-3l-1-1h-1v-1h-1v-1h-1v-1l1-1v-1h1v-1l2-3q3-2 3-3h1v-1q0-2-2-2h-1v1q-1 0-1 0v-2h-1v-1l3-1q3-1 3-2 1 0 1 0v-1h1v-1h1v-2h-2q-3-1-4-3-2-2-6-3h-5q0-1 0-2z" fill="#e8d7cc" stroke="#e8d7cc"/>
  <path d="m420 400l1-1 3 11q2 10 3 10 1 1 0 2t0 2q0 1 1 1t2 4q2 5 3 5 1 2 3 2h1l-1 1q-2 1-2 10v9l-1 4q-1 4-1 12 0 9 1 12v4l-1 2v1h-1v1h-2v1h-1v4h-1v-2l-1-2v-3q0-4-3-18l-3-15v-9q0-6-2-18l-3-12v-2q1-1 0-3v-2h1l2 1 1-2 1-3v-5q0-1 0-2z" fill="#e06f64" stroke="#e06f64"/>
  <path d="m531 573h1q1 1 2 1h1l5-1h5v2q1 2 1 3v7h1v1h1t-2 2l-3 1h-2q-1 0-4 5-3 6-3 8v2l-1 3v3h-1v-1l-1-1-1-2v-2l-1-2-1-1v-1q0-1-1-4v-4q1-3 1-6 0-4-1-4l-1-1v-1q0-1 0-2 1 0 2-3 2-2 3-2z" fill="#b8a37d" stroke="#b8a37d"/>
  <path d="m658 406h4v6q-2 4-2 4t0 1q-1 1-1 1h-1t-4 1h-4v-1h-1v-1h-1v-6q0-1 1-2l1-1t1 0v-1l2-1q2 0 5 0z" fill="#b18c53" stroke="#b18c53"/>
  <path d="m528 286h9v2q1 0 1 1v1q0 1-10 1h-10q0-1-1-2l-1-2h2q2-1 10-1z" fill="#9e8d72" stroke="#9e8d72"/>
  <path d="m576 580h4q2 1 2 4 0 4-1 4v1q-1 0-3 1l-2 2q0-1-1-2l-1-2v2q0 1-2 1-2-1-2-1l-1-1q1 0 2-5 1-6 3-6 1 0 1 1t1 1z" fill="#bbab88" stroke="#bbab88"/>
  <path d="m666 540l2-10q1 0 2 1h1v5q-1 4-1 7v3l-1 3v3h3l1-1 1-1 1-2 1-1v-2q0-2 2-3l1-1h1q1 0 0 3 0 2-1 4l-1 3v1l-1 1-1 1v1q-1 1-6 3l-4 3h-1q-1 1-5 3l-4 2h-13v-1h1v-1h-1v-2h3l1-1 1-1h4q3 0 5-2 2 0 5-4 2-4 4-14z" fill="#d2c26a" stroke="#d2c26a"/>
  <path d="m415 340h1t0 1h1l3 6q3 5 5 7t3 2h10v-1h1v-1h1v-4l1-2v-2h1v-2q0-1 1-1v2q1 2 1 5v3l1 1v1l1-1q2 0 2-2 0-1 2 2 2 2 3 2t2-2 1-1h1l2 3q2 4 5 3 4 0 4-3 0-4-1-5v-1h2v1l1 1v-2h3-1v4q0 4 0 6v2h1v1h1v-1l1-1q1-1 3 1 2 4 4 4t2-1 1-1 1 1h1q0 1 1 1 0 1 1 1v1h1q1 0 3 1h2v1h-1v1h1v1h4v1l1 1v1h-1v1h1v3h-1l-1 1-1 1-1 1v1h1v1h-2v1l-1 1v-1h-1v-1q-1 0-1 0v-1h-1v-1h-1v1q-1-1-3-3t-7-3l-4-1h-6q0 1-1 6l-1 4v1l1 1h-5q-6 0-15 0-9-2-11 1-2 2-3 8t1 11l2 4h1l1 1 4 6q4 6 5 7l1 2v1l1 1 1 2v1h-1v1h-8l-2 1q-2 1-3 1h-2q-2 0-3-2-1 0-3-5-1-4-2-4t-1-1q-1-1 0-2t0-2q-1 0-3-10l-3-11v-4q-1-4-1-8t-3-26-2-21z" fill="#e4363f" stroke="#e4363f"/>
  <path d="m553 281h1l1 1h1l11 2q12 2 29 2 16 2 17 2h1t-2 2l-2 1h-4q-4-1-6-1h-17q-14 0-25-2l-10-2h-2l3-1 3-1h-1l-1-1q-2-1-2-1h4q1 0 1-1z" fill="#e2bda9" stroke="#e2bda9"/>
  <path d="m504 459l4-1 2 1q3 1 4 1h1l3 2q2 1 4 4 1 2 1 3 1 0 1 1h-3q-1 0-3-1h-2q-1-1-6-3l-5-2-1-1q-2-1-2-2-1-1 2-2z" fill="#c4bbad" stroke="#c4bbad"/>
  <path d="m471 376h5l4 1q5 1 7 3t3 3v1h1v1h1v1l3 6q3 5 3 6 0 0-1 1-1 0-1 1t-2 1h-1v-1q-1 0-1-2l-2-1v-1q0-2-3-7l-3-5-1-1-1-1h-6l-2-1h-1v1q-1 1-1 4v5l-1-1h-1v-2h-1l-1-1v-1l1-4q1-5 1-6h1z" fill="#edd9d4" stroke="#edd9d4"/>
  <path d="m665 415l-1 1v2l-1 1v1l-1 1v-4h-1v1h-2v-2h1q1 0 2-4v-6h-4q-3 0-4 0-2 0-2 1t-1 1h-1v-1q0-1-2-2l-2-1v1h-1v-1h-1l-1 1h-1v-2h1q1-1 1-1 1 0 2-8l1-7 3-2q2-1 3 0t4 2q3 0 3 2t3 3 3 4q1 4 2 4t-1 5q-1 5-1 7t-1 3z" fill="#e9a94f" stroke="#e9a94f"/>
  <path d="m588 617h3q0 1 1 1l-1 5q-1 5 0 5t-1 3q-1 3-2 3-2 0-4 2-1 2-2 2-2 0-4 3-1 3-2 3h-1v2h-2l-1 1h-2q-1-1-5-3l-4-2v-1h-1v-1h-1v-1h-1v-1h-3v-1h1v-1h2v-1l1-1 1-1 2-3q3-2 4-3 2-1 2-1 1 0 1-1l5-1q6 0 8-3 3-3 4-3t2-1z" fill="#ca9564" stroke="#ca9564"/>
  <path d="m546 572l1-1h28l2 1h10v1h-1q-2 1-5 2-3 2-3 3 1 0 0 1v1h-2q-1 0-1-1t-1-1q-2 0-3 6-1 5-2 5v-2q-1-2-1-2v-1q0-2-2-4t-3 4l-1 6-1-2q-1-1-2-2-1 0-1 2v2h-2v-1t-2-1q-1-2-4-2h-3v-1h-1v-7q0-1-1-3v-2h1q0-1 0-1z" fill="#b99c6c" stroke="#b99c6c"/>
  <path d="m460 422v-1h5q5 1 6 1h1l5 2q5 0 6 1h1q0 1 0 1h1t-2 2l-2 1h-3q-2-1-8-1-5-1-4 4l2 5v1h1v2h-1v2h-4t-1-1l-1-1v-3l-1-3q-1-2-1-3v-3q0-2 0-3v-3z" fill="#e1d2cc" stroke="#e1d2cc"/>
  <path d="m550 471l1 1h2l1 1h1l5 1q4 0 6 1l2 1 1 1 1 1v6h-1q-1 0-2 2-1 0-6 2-5 1-4 4l1 2q-1 0-2 1 0 1-4 2t-8-1q-3-2-4-2t-4-1q-2-1-6-4l-3-3t-7-3l-7-3h2v-2l-1-2v-1h1v-1h1v-1l-1-1v-2h2v-1h1q2 1 3 1h2q1 0 1 0l1-1q1-1 2 0h2q1 0 0 0l1-2q0-1 10 1 9 2 10 3zm-19-3t0-1q1 0 1 1 0 0-1 0z" fill="#897862" stroke="#897862"/>
  <path d="m603 578v7h-1v2l-1 4q-1 4-1 4v-1q0-2-4-2-3 0-2 2l1 2h-1q-1 0-2 1 0 0 0-1t-2-2q-1 0-1-5v-7q1-1 0-4v-2h-2v-2h1q1 0 2 0h6q6 0 6 2 0 1 1 2z" fill="#a39a50" stroke="#a39a50"/>
  <path d="m598 536h6l3 1q3 0 3 1t1 2h-6q-3 1-4 4t-1 5v2h-1v1h-1v-1l-1-1-1-1v-1q0-2-2-4 0-3-2-4h-2t-2 0h-3l-3-1h-3l-1-1h5l7-1q6-1 8-1z" fill="#e1ce59" stroke="#e1ce59"/>
  <path d="m393 250q7 0 7 0 0 2-8 2-7 0-7-1 1-1 8-1z" fill="#f5e0d7" stroke="#f5e0d7"/>
  <path d="m633 536h7l1 1h1v1q0 1 1 2v2q-1 2-1 2t-3 0-7 0h-3v1l-1 1v1l-1 1-1 2v6l1 1 1 1h2q3 0 5-2t4-3q2 0 1 3-2 4-3 5-2 1-2 2h-1l-1 1h-12v-1h-1v-1h-1v-1h-1v-6q0-4 0-7l1-2 3-4q4-4 6-4 2-2 5-2z" fill="#91733d" stroke="#91733d"/>
  <path d="m564 659h2v1q-1 0 0 1 2 1-1 1t-3 1h-1q-1 1-6 1t-7 2l-2 2h-2q-2 0-3 2l-1 3v1h-1v-2l-1-3v-4l-1-1-1-2v-2h1v1h1v1h1l1 1h1v-3q0-4 11-3t12 2z" fill="#b3af99" stroke="#b3af99"/>
  <path d="m706 508h1l-1 5q0 5 2 7t3 2l-3 14q-2 13-3 14v1h-1q0 1-1 1-1 2-2-1t-3-3q-1 0-3 1t-2 0q-1-1-3 1-3 2-6 3l-3 1v2h-3l-1-1h-1v-1l1-1 1-1v-1l1-3q1-2 1-4 1-3 0-3h-1q0-1 3-4 4-3 4-9 2-6-1-6l-2-1v-1h1l1-1 1-1h4q5 0 7-3t5-3q3-1 4-2 0-2 0-2z" fill="#c4aa7a" stroke="#c4aa7a"/>
  <path d="m668 524h1t-5 2-17 4l-12 4h-3l2 1 2 1h-3q-3 0-5 2-2 0-6 4l-3 4h-1t-2 0h-2v-1q0-1-2-3l-1-2q-1-1-1-2t-3-1l-3-1h-4v-2h3v-2h2l7-4q7-2 12-4 6-2 6-2h2v-1h1v-1l9-2q10-2 16-3 6 0 8 5 1 4 2 4z" fill="#cec491" stroke="#cec491"/>
  <path d="m708 481h1l1 1t-1 12q-1 11-2 12v2h-1t0 2q-1 1-4 2-3 0-5 3t-7 3h-4l-1 1-1 1h-1v1h-1q-1 1-4 2l-3 1q-1-1-3 0h-4q-1 0-2-4-2-5-8-5-6 1-16 3l-9 2v1h-1v1h-1v-1l1-1-2-1-2-1h-2v-2h1l1-1 1-1 19-6q20-6 40-16t20-11z" fill="#d7cfb3" stroke="#d7cfb3"/>
  <path d="m570 538h8l1 1h1v1h-3q-3 1-4 10-1 10-1 13v3h-2q-1 0-2 0v-2q0-3 1-13 0-10-2-11h-2l2-1q2-1 3-1z" fill="#decb4e" stroke="#decb4e"/>
  <path d="m617 232v1q1 1 1 1v-1 5q-2 5-2 6v1l-1 1h-2v1h-1v1t-4 3-6 6q-2 2-5 3-3 0-11 0-7-2-12-4l-5-2v-1h1v-3l1-1q1-1 1-3l2-3v-2l1-1 7-6q6-6 7-6v-1l5-1q6 0 12 0t7 1q0 1 1 1t2 2q0 2 1 2z" fill="#d4bd7b" stroke="#d4bd7b"/>
  <path d="m393 226l7-4v1q1 1 2 0 1 0 1 1t-1 1-3 3q-1 2-2 4v1h1l1 1h1v7h1v1h4q1 1 2 2 0 2 1 2h1v1h1v1h2l-1 1-1 1h-2q-2 0-4 1l-1 1h-1l1 1h1v2h1l1 1h2l-2 1-1 1h-4q-4 0-7 1-2 1-9 0h-7v8h-1v1h-1v-8q0-8 1-10t5-10q4-9 11-14zm0 24q7 0 7 0 0 2-8 2-7 0-7-1 1-1 8-1z" fill="#f2aa99" stroke="#f2aa99"/>
  <path d="m416 328v-1h1v3l1 3 2 7q4 7 7 10 3 4 5 4t4-2 3-4v-3h1v2h1v1l-1 2v4h-1v1h-1v1h-10q-1 0-3-2t-5-7l-3-6v-1q-1 0-1 0v-2q0-1-1-6v-4h1z" fill="#e96463" stroke="#e96463"/>
  <path d="m433 460l1-4 1 1 1 1v-1l2 5q2 6 2 7v1h-1q-1 0-1 1v1l1 1 1 1v2h1v1h1v1t0 1h1q0 1 1 1 0 0 0 1h1q0 1 1 1 0 0 0 1h1l2 7q1 7 4 10 2 4 3 4l2 2q1 2 6 2 6 0 6 4v5h1v9l-1 1v1h-1v-2h-2v-2l-1-1v-3h-2v2q-1 2-1 3h-1v1l-1-2q-1-2-1-5t-2-4l-1-1h-1l-2-1-2-1h-1l-1 1h-2v5q1 6 0 6 0 0 0 1h-1v1h-1v2l-1 1v1h-2v-1h-1v-4h-1v1h-1v-3q0-3-4-19l-3-17v-3q-1-3-1-12 0-8 1-12z" fill="#e34d4b" stroke="#e34d4b"/>
  <path d="m560 470v-1l6 1q7 2 9 4 1 2 2 4l1 2q0 1-1 3t-3 5q-2 2-7 6l-5 3q-1-1-2-1l-2-2-1-2q-1-3 4-4 5-2 6-2 1-2 2-2h1v-6l-1-1-1-1-2-1q-2-1-6-1l-5-1v-1l2-1q3-1 3-1z" fill="#efe2d2" stroke="#efe2d2"/>
  <path d="m608 550l1-10h2l1 2q2 2 2 3v1h2q2 0 2 0h1l-1 2q0 3 0 7v6h1v1h1v1h1v1h12l1-1h1l3 1q3 0 4 0 0 0 0-1h1v1h1v1h-1v1q-1 1-3 2-2 0-4 2t-3 4v2h-1q-2 1-2 3t1 3 1 1v1h-2l-2 1h-1v1l-1 1v-1h-1q-1 0-3-1h-2q0-1 0-1v-1q0-1 0-3t-3-1-4-2q-1-2-3-2-1 0-1 2v2h-1v-1q0-1-2-1t-2 1l-1 1v-1q-1-1-1-2 0-2-6-2h-5l-1 1h-2v-1h-1v-2h3v-1h1v-1h1v-3l1-3v-4h1v2l2 2q1 2 4 2h5v-1l1-1v-2q0-1 2-12z" fill="#d3c65e" stroke="#d3c65e"/>
  <path d="m513 323l1-2 4 1q3 0 11 0 9 0 9 1t1 1h1v1q-1 1-2 2-1 0-1 1v1h-1l-1 1h-1v2h-1v1h-3q-4-1-7-1h-3v-1h-1v-1h1v-2h1l-1-1-1-1h-4l-1-1q-2-1-1-2z" fill="#f0cfc6" stroke="#f0cfc6"/>
  <path d="m489 507l2-1h1l1 1 1 1h1l8 4q8 4 8 4h-1v1h-1v1h1v1h-1q-1-1-6-3l-5-2h-3l1 24q2 24 2 32v7l-1 1v1h-1v-2h-1v1h-1v-4h-3v-2q1-1-1-32-2-32-1-33z" fill="#e4d7d1" stroke="#e4d7d1"/>
  <path d="m467 350t1 1v4q0 4-4 4-3 1-5-3l-2-3q1 0 1-3l1-4h1q1 0 4 1 2 2 3 3z" fill="#972e29" stroke="#972e29"/>
  <path d="m400 295h1q0 1 1 1l2 1q2 1 3 2l1 1 6 2q5 4 5 4h-1q-1 0-1 1t-1 1q-2 0-3 3l-1 3v3h-1v1h1v6h1v-1h1v-1q0-1 1-1h1v1q0 1-1 2v1q-1 0-1 1v2h-1v1h-1q0-1-2-3l-2-2v1h-1v1h-1v1l-1 3q-1 3-1 4v2h-2v3h-1v-1l-1-1v-5l-1-1v-10q-1-9-1-17 0-9 2-9z" fill="#da7063" stroke="#da7063"/>
  <path d="m464 599l-3-13h1q1 0 3 6 1 5 2 6l1 1v4l1 1 1 1v2l1-2 1-2v-3q0-2 1-2l1 1q1 1 2 1 0 0 0 1h1l-2 7q-1 8-2 11v3h-2v-1h-1v-1q0-1-1-2l-1-2v-3q0-1-4-14z" fill="#d6a520" stroke="#d6a520"/>
  <path d="m566 660v-1l4 1q4 1 4 3 1 2 6 3 6 0 8 0h3l1 1h1v2q1 2 0 4t-1 3-1 0v1h-2q-2 1-14 1h-12l-1-1h-1v-1l-1-2v-2h-1v-1h3q3-1 4-3 0-3-1-3t-1-1-1-1h-1q0-1 3-1t1-1q-1-1 0-1z" fill="#bfbba5" stroke="#bfbba5"/>
  <path d="m589 584v5q0 5 1 5 2 0 2 1v1q-1 0 0 1l-3 3q-3 4-3 6 0 1-1 1t-1 1-1 1-2 0q-1 1-3 0l-3-1 1-1v-15l2-2q2-1 3-1v1q0 2 2 2 1-1 3-2 2-2 2-4t1-2z" fill="#b2b663" stroke="#b2b663"/>
  <path d="m620 583v1t-2 3q-1 3-2 2 0-2-2-2-1 0-2-3v-3h-1v1h-1q-1 0-1-2v-3q0-2 1-2 2 0 3 2 1 3 4 2t3 1 0 3z" fill="#a9915e" stroke="#a9915e"/>
  <path d="m474 510h1l2 22q3 23 3 27v4l-1 3q-1 4-1 4t0 1h-1v-1l-1-2v-3q0-3-2-22l-2-19h-1v-8h1v-3q0-3 2-3z" fill="#e0cbc2" stroke="#e0cbc2"/>
  <path d="m444 442h3-1q-2 1-1 3 1 3 2 3h1t0 1h1l2 2q2 3 3 2h1v1q0 1-2 1h-2v3l-1 4 2 1q2 1 4 1h3v1h-4q-4 1-7 5l-2 4h-4v-2l-1-1-1-1v-1h-1v-1q-1-1-2-6l-1-5v-7q0-6 2-7t6-1z" fill="#4a3d2d" stroke="#4a3d2d"/>
  <path d="m515 576v-1h1l1 1h1q2 1 2 0 1 0 3 2t3 3l1 1q1 0 1 4 0 3-1 6v2q-1 0-1-3-1-3-6-4l-6-1v1h-1v-1l1-1v-3q0-4 1-6z" fill="#c0b6a3" stroke="#c0b6a3"/>
  <path d="m586 573h1v1t1 1l1 3q1 3 0 4v2q-1 0-1 2t-2 4q-2 1-3 2-2 0-2-2v-2q1 0 1-4 0-3-2-4h-2v-1q1-1 0-1 0-1 3-3 3-1 5-2z" fill="#ac9d68" stroke="#ac9d68"/>
  <path d="m768 268v2q0 3 1 11v8h-1q0-1-3-3t-7-3q-5-1-6 0l-2 1v-1q1-1 3-2l2-1h1l2-1q2-1 2-2t1-1 3-4q2-5 2-4 1 0 2 0z" fill="#5c503d" stroke="#5c503d"/>
  <path d="m520 561v-1h1l3 1q3 1 8 2h6q1-1 1-1h1t0-1q1-1 1-1h1q1 0 1 2v1h-1v2q0 2-1 3h-1q-1 0-4 0h-6q-1 0-3-1l-2-1h-1q-1 0-1-1-1 0-2 0h-2v-1q1 0 1-1v-2z" fill="#e1d348" stroke="#e1d348"/>
  <path d="m516 570l2-3 1 1q1 2 1 2h3q3 0 3 1h1l3 1q2 0 2 1h-1q-1 0-1 1t1 1 1 1q-1 2-4 2-2 0-2 0 0 1 0 2v1q-1-1-3-3t-3-2q0 1-2 0h-1l-1-1h-1v-1q-1-2 1-4z" fill="#bfb49f" stroke="#bfb49f"/>
  <path d="m626 203q0 1 0 1h1t1 1v2q0 2 0 2h-3q-3 1-3 1h-1v1q1 0-8-1-9-2-9-4v-1t1-1q1 0 1 0v-1l3-2q3-1 9-1 6 2 7 2t1 1z" fill="#c3b276" stroke="#c3b276"/>
  <path d="m625 516h1v2h2l2 1 2 1-1 1v1h-1t-6 2q-5 2-12 4l-7 4h-2v2h-3v2h-2q-2 0-8 1l-7 1h-13l-2-1-2-1h1v-1h1l1-1h3l26-9q26-9 27-9z" fill="#ddd9c1" stroke="#ddd9c1"/>
  <path d="m704 551h1l-2 11q-3 10-3 13v3l-1 2-1 3v-7h-1v1h-1v1h-1q-1 0-5-1l-3-1v-1q-1-1-1-6-1-5-2-5-2 0-3 2l-1 1v-4q0-4-2-4h-1v-1h1v-2h3v-2l3-1q3-1 6-3 2-2 3-1 0 1 2 0t3-1q2 0 3 3t2 1q1 0 1-1z" fill="#c4af8d" stroke="#c4af8d"/>
  <path d="m504 434h2q2 0 3 4t2 3 1 1v1h-1v1h1v3h1l-1 1q-2 2-2 3v1l-1 2v2t1 1q0 1-1 1h-1l-4 1q-3 1-2 2 0 1 2 2l1 1 5 2q5 2 6 3h1v1h-2v2l1 1v1h-1v1h-1v1l1 2v2h-4l-1-1q-1-1-5-2l-4-1q-1-1-1-1h-1q-1-1-4-1t-3 1v1-2q0-1 0-1 0-1-1-6-1-6-3-7l-1-1h3q2-1 0-1-1-2-2-5 0-3-2-3h-2t0-1h-2l-2-1h-3l-1-1-1-1h-1v-1h1l1 1h3l2 1q2 1 3 1h1q1 0 1 0v1l3-1q3-1 7-7t6-6q1-1 2-1z" fill="#655647" stroke="#655647"/>
  <path d="m514 587v-1l6 1q5 1 6 4 0 3 1 3v2q1 3 1 4v1l1 1 1 2v2l1 2 1 1v1h1l8 11q7 11 9 13t3 2h1v1h1v1h3v1h1v1h1v1h1v1l4 2q4 2 5 3h1v1h1l1 1 1 1h2l6 2q6 2 8 3l1 1h2l1 1h6q4 1 12 1h14q7 0 10-1l2-1h5v1h-1v1h-1v1h-1v1h-4l-1 1q-1 1-1 1t0 2q0 1-2 3-2 1-20 5l-19 4-1 1h-1v-2h1q1 0 1-4v-4h-1l-1-1h-3q-2 0-8 0-5-1-6-3 0-2-4-3l-4-1h-2q-1-1-12-2t-11 3v3h-1l-1-1h-1v-1h-1v-1h-1v-2q0-1-2-13t-9-21l-7-10q0-1-1-3v-3l-1-1v-3l-1-2q-1-2-1-8l-1-7h1z" fill="#dee7e2" stroke="#dee7e2"/>
  <path d="m666 530h2l-2 10q-2 10-4 14-3 4-5 4-2 2-5 2h-3t-1-1-1-9v-9h1v-5l1-1v-1h2v-1h1v1h4v1l-1 3q-1 4-1 9v5h4v-1h1v-1h1v-1l1-2q1-2 1-9 2-7 4-8z" fill="#a48c5c" stroke="#a48c5c"/>
  <path d="m615 281v-1l5 1q5 1 7 1h2l2 1 2 1h1v3h-1v1h-1v1h-1v1h-3l-9 1h-9l2-1q2-2 2-2h3q3 0 5-1h1v-1l-1-1v-1h-2q-3 0-5-1h-2l1-1q1 0 1-1z" fill="#e8c8b9" stroke="#e8c8b9"/>
  <path d="m643 566h9q2 1 2 2v2h-3v3h-1l-1 1h-1v-1q0-1-1-1t-2 2q-1 3-1 6t1 3q1 1 1 1h-2q-3 0-4 1v-1q0-1 0-2 0-2-3-4l-4-2v-2q1-2 3-4t4-2q2-1 3-2z" fill="#c6b082" stroke="#c6b082"/>
  <path d="m676 555h1l1 1v2h-1v1l-1 6q0 5 2 6 1 0 1-1 1-1 1-2v-1l1-1q1-2 3-2 1 0 2 5 0 5 1 6v3q1 2 2 2t0 4q-2 4-3 4t-5 10q-5 9-7 19t-4 13q0 3-1 4l-1 1v1h-1v1h-1v1l-1 1v1h-1t-1 1-4 1-3-1-5-2-9 1q-3 2-6 7t-6 5q-2 0-4 0h-3v1h-1v1h-1v1h1v1h-2v1l-1 1h-7q-8 0-12-1h-4v-1h-2v-1h-1v-1h-1v-3h1v-1q1 0 2-1 2-1 2-2 1-1 0-3-1-3 1-4t2-4q0-2 2-3t2-2v-3h1v-1h-1v-2h-1v-1h-1v-2q0-1 3-1 2-1 3-3 2-2 3-2t0-2q-1-3 1-4 1 0 2-4t2-4 2-2q2-2 2-8l1-7h1q2 1 3 1h1v1l1-1v-1h1l2-1h2v-1t-1-1h1q2 0 4 1l1 1h1t1 1h1q1-1 4-1h2t1-5l1-5h1l1-1h1v-3h3v9l-1 1v1h1l1-1h1v-1h1v-1h1v-1q0-1 1-3l1-3-1-1v-1h2v4l1 4v1h2v-6l1-2q1-2 1-6v-3l4-3q5-2 6-3z" fill="#c59169" stroke="#c59169"/>
  <path d="m500 406l-2-2 6 1q6 1 6 2v1l-1 1v1h-5q0-1-1-1t-3-3z" fill="#baab9b" stroke="#baab9b"/>
  <path d="m608 578v4q0 3-1 5l-1 2v1h-1v1h-1v-1t-1-2v-9l1-1q0-1 2-1t2 1z" fill="#d8d0b6" stroke="#d8d0b6"/>
  <path d="m546 286h2l10 2q11 2 25 2h14v1h1v2h-1v1h-1v4h-1l1 1 2 1 18 3q18 3 19 3v1h-1v2l-1 1-1 1v2l-1 1-1 1v2h-1v-1q-1-1-1-2 0 0-16 1t-19-1q-3 0-9 0-5 2-4 3 0 2-12 2l-12-1h-8v2h1l1 1 1 1h1v1h-1l-1-1h-4l-1 1-1 1h-2v-2h1q1 0 1-6-1-6-5-6-4 1-3-2 2-2-1-3l-3-1h-12l1-1 1-1h6q4 0 4-2 0-1 2-2 3 0 3-1t1-1q2-1 2-2l3-1q3-1 3-3 0-3 0-4z" fill="#f1947b" stroke="#f1947b"/>
  <path d="m594 461t1 1l1 1v1l8-1q7-1 9 1 3 1 3 2t1 2q-1 0-1 2t-1 2q-2 1-3 3 0 2-2 1-1 0-11 2l-10 3v-1l-1-1v-1h-6v-3h-1v-1h1v-1h1v-1h3q2-1 3-2 0-2 1-2h1v-1h-1v-1h-1v-1q1 0 1-1 0 0 1 0v-1l1-1q1 0 2-1z" fill="#d56945" stroke="#d56945"/>
  <path d="m730 307v1h4q3 0 3 4v3l-3 19q-2 18-3 20v1h-1l-2 24q-2 25-2 33 0 9 1 12v3l-4 21q-3 21-4 22v2h-1v1t-4 3l-2 3h-1v1h-1q-1 0-1 1h-1q0 1-20 11t-40 16l-19 6-1 1-1 1h-2q-1 0-27 9l-26 9h-3l-1 1h-2q-2 1-12 0h-14q-3-1-4-1 0 0-7-1l-7-1-1 1q-1 1-1 1h-1l-1 1-1-1-1-1v-6l1-2v-2h-2v-2h1l1 1h1t6 1q5 1 8-1 4-2 4-3t1-7-1-8v-2h-1v-2l1-1v1h1l3 2q4 0 11 0h8v-1h1v-1h1v-1h1v-2l5-3q5-4 7-6 2-3 3-5t1-3l1-1 1-1t1-1h1v1h6v1l1 1v1l10-3q10-2 11-2 2 1 2-1 1-2 3-3 1 0 1-2t1-2l3 1q2 1 2 2l1-3q1-3 4-2 3 0 3-1 1-1 2-2 1 0 2-2 0-3 2-3h1v1l1 1v-2l2-1q2-1 4-3 1-3 2-3h1v-1q0-1 1-1 1-1 2-1h2v-2l1-1v-1h-1q-1 0-1-1t3-1q2 0 4 0 3 0 4-6 1-7 2-7t1-5q0-4-1-4h-1v-1l1-1v-2l1-1q1-1 1-3t1-7q2-5 1-5t-2-4q0-3-3-4t-3-3-3-2q-3-1-4-2t-3 0l-3 2v-3q0-3-3-3-4 1-5 1-1 2-2 0-1 0-2-3l-1-3h-3v1q-1 0-2 3l-2 3q0-1-3-1-2 0-3 0t-5 1q-5 1-13 7-7 5-9 9l-2 4h-1v1h-1l-1 1-1 1h-1v-1h-1v-5q0-3 0-7t-2-5q-1 0-1-2-1-3-5-6-4-4-5-5t-2-1-4-1h-3v-15q0-5 0-7t-2-3q-1-1 0-3 0-2 1-2 1-1-3-2-3-1-2-2v-1h1l-3-1-2-1h-1v-1l39-1q40-2 61-4 21-4 27-6 7-2 8-2h1l17-6q17-6 20-7t4-2z" fill="#eb7561" stroke="#eb7561"/>
  <path d="m640 310l5 1q5 1 13 1h9v1h-2q-2 1-12 1l-10 2h-4l-1 1h-1v-1q1-1 1-3l1-2q1 0 1-1z" fill="#7f6e52" stroke="#7f6e52"/>
  <path d="m480 264h1l1 1 2 1h1l1 1q1 1 4 1h4v1l-1 1-1 1v1h-1t-1 2-4 3-2 2v1h-4q-4 0-5-1h-1q0-1 2-1t2-3l-1-3t1-3q0-2 0-3h-1l1-1q2-1 2-1z" fill="#d9d0c4" stroke="#d9d0c4"/>
  <path d="m415 418l3 12q2 12 2 18v9l-1-3-1-2v-4q0-3-2-14l-2-12v-2q0-2 1-2z" fill="#dbb29e" stroke="#dbb29e"/>
  <path d="m745 298h6t-3 1q-2 0-2 1t-1 2-2 2q-1 2-3 6l-3 5v-3q0-4-3-4h-4v-1h1v-1h1q2-2 3-2h1v-1h1v-1h1l-4-1h-4v-1h4q5-2 11-2z" fill="#d4a690" stroke="#d4a690"/>
  <path d="m618 421v5q0 4 0 4 0 1-1 2v2q-1 1-1 2 0 0-1-2-1-3-2-3t-1-1-1 0q0 2-1 2-2 1-2-4 0-4 2-3t2-1v-1t1-1q1 0 1 0v-1h2q2 0 2 0z" fill="#b9964c" stroke="#b9964c"/>
  <path d="m445 482l-3-4 4 3q4 3 5 2t1-1v6l2 6q3 7 4 7h2q0 1-2 1-1 0-2 1v1q-1 0-3-4-3-3-4-9t-4-9z" fill="#d5b8af" stroke="#d5b8af"/>
  <path d="m675 524l-2 4q-1 3-2 3h-1q-1-1-2-1h-2q-2 1-4 8 0 7-1 9l-1 2v1h-1v1h-1v1h-4v-5q0-5 1-9l1-3v-1h-4v-1h-1v1h-2v1l-1 1v5h-2q-1-1-2-1h-1q-1-1-1-2v-1h-1l-1-1h-4l-2-1-2-1h3l12-4q12-2 17-4t5-2h3q2-1 3 0z" fill="#dfcb61" stroke="#dfcb61"/>
  <path d="m500 476v-1l4 2q5 1 6 2l1 1h2l7 3q7 3 7 3v2q1 3 0 3h-1q0-1-8-4t-12-5h-6v-1q0-1 1-1 1-1 0-2t-1-2z" fill="#e7d2cb" stroke="#e7d2cb"/>
  <path d="m631 377v-1h3l1 3q1 3 2 3 1 2 2 0 1 0 5-1 3 0 3 3v3l-1 7q-1 8-2 8-1 2-1 2h-1t0 1l-1 1h-5l-3 1h-3v-1h-2v-1h-1v-1h-1v-6q0-5 1-10v-5l2-3q1-3 2-3z" fill="#b2854d" stroke="#b2854d"/>
  <path d="m450 393l9 1 1 1 2 1h2v2q0 1 2 1 1 1 2 1h2q3 1 4 7 0 7 2 9t2 2q0 1 0 1v1h1l-1 1-2 1h-5q-1 0-6-1h-5v4q0 1 0 3v3q0 1 1 3l1 3v4l-1 1-1 1v1h-1v-1h-1l-1-1v-1h1v-1h-1v-2q-1-2-3-8-2-7-5-10l-4-4q-1-1-1-1v-1t-1 0v-1q-1-1-3-3-2-3-2-10 0-6 2-7t10 0z" fill="#372b1e" stroke="#372b1e"/>
  <path d="m472 390v-2 5q1 5 0 5-1 2-2 2h-2q-1 0-2-1-2 0-2-1v-2h-2l-2-1-1-1 6 1q7 1 7-1v-4z" fill="#998b7d" stroke="#998b7d"/>
  <path d="m594 461q-1 1-2 1l-1 1h-1q0 1 0 1-1 0-4-2l-4-2v-1q0-1 0-3 0-1 1-4l2-3h3q2-1 5 1t2 6-1 4 0 1z" fill="#af6843" stroke="#af6843"/>
  <path d="m540 568h1l3 1q3 1 3 2l-1 1t0 1h-6l-5 1h-1q-1 0-2-1 0-1-2-1l-3-1 3-1q3 0 2-1 0-1 0-1h4q3 0 4 0z" fill="#c9c188" stroke="#c9c188"/>
  <path d="m440 413v-1h1v1h1q0 1 0 1h1t1 1q0 1 0 1h1l4 4q3 3 5 10 2 6 3 8v3h-3q-4-1-6 0l-1 1h-3q-4 0-6 1t-2 7v8l-1-1-1-1v-9q0-9 2-10l1-1h1q1 0 3-1l2-1h8v-1h1v-1l-1-2-1-1v-1l-1-2q-1-1-5-7l-4-6z" fill="#dec6be" stroke="#dec6be"/>
  <path d="m770 294v-2t0 2-7 14q-7 13-14 30l-7 17v3h-1v-2q-1-3-2-2l-1 2h-1v1h-1v1h-1v1h-1v1h-1v1h-1v-2l-1-2v-3q1-2 3-20l3-19 3-5q2-4 3-6 1-1 2-2t1-2 2-1q3-1 3-1l7-1q7-1 7-1h2q3-1 3-2z" fill="#d6c7b4" stroke="#d6c7b4"/>
  <path d="m419 325v-1h3v9h1l2 3q1 4 3 4t2-4v-5q1-1 4 4 4 5 4 7t1 2v4q-1 2-3 4t-4 2-5-4q-3-3-7-10l-2-7-1-3v-4h1v-1h1z" fill="#e53840" stroke="#e53840"/>
  <path d="m540 538h3q2 0 2 1v12l-1 12v1h-1v-2q-1-2-3 0l-2 1v-1q0-1 1-2 1 0 1-4t-4-6q-3-2-6-5l-2-2h-1v-1h5v1h1v1h4q3 0 3-1 0 0-1-1v-2q0-1 1-2z" fill="#d2be3e" stroke="#d2be3e"/>
  <path d="m663 420h1q1 0 1 4 0 5-1 5t-2 7q-1 6-4 6-2 0-4 0-3 0-3 1h-1q0-1-2-1t-3-4l-1-5 2-3q1-3 6-4 4-2 7-2 3-1 3-2v-1l1-1z" fill="#bd9453" stroke="#bd9453"/>
  <path d="m632 576h1l4 2q3 2 3 4 0 1 0 2v1h-1q-1-1-1-1h-1l-1-1q-2-1-4-1h-1q-1-1-1-3t2-3z" fill="#d8ceb3" stroke="#d8ceb3"/>
  <path d="m525 255h3v2q-1 1-4 3l-4 2v1h-1v1h-1v2h3q3 0 4-1h1v1q-1 2-1 2h-1v1h1v1h1v1h-1q-1-1-8-1t-7-1l-1-1 7-6q7-6 9-7z" fill="#e4d5ca" stroke="#e4d5ca"/>
  <path d="m411 404l-1-5h1q1 0 2 3 1 2 1 4v1l1 2v4q1 2 0 3v2q-1 0-1 2v2t-1-3l-1-3v-4q0-3-1-8z" fill="#dda595" stroke="#dda595"/>
  <path d="m536 187l3-1 36 1q36 1 61 4 26 3 39 7 13 2 14 3h1q0 1 0 3t-3 8l-3 6q-1 0-2-2t-4-3q-4-1-12-2l-9-2v-1q-1-2-3-4-2-1-6-2-3 0-6 1-2 1-6 1t-6 1h-2v-1t-1 0q-1-1-1-1 0-1-1-1t-7-2q-6 0-9 1l-3 2q-1 1-1 1h-1t0 1q-1-1-1-1-1 0-4 5t-7 9l-4 4h-2v1h-1v1h-1v1h-1v-1q-1 0-6-1l-5-1-6-1-5-1h-1v-1l1-1v-2h1v-5h-1v-1h-1v-2h15l2-1h2v-4h-2l-2-1h-3q-2 0-3-2t-9-3l-8-1v-1q0-1-6-2l-7-1-1-1v-1h2l-4-1q-3-1-2-1v-1h2z" fill="#ec8b74" stroke="#ec8b74"/>
  <path d="m532 304l3 1q3 1 1 3-1 3 3 2 4 0 5 6 0 6 0 6-1 0-1 1h-1q0 1 0 1h-2q-1 0-1 1h-1q0 1 0 1t0-2-9-2q-8 0-11 0l-4-1h-6q-5-1-10-1t-6-1q0-1-5-1t-19-2l-14-4h-3l-1-1v-2h1v-1h1l9-1q9-1 11-1 1 0 4-1h4l18 1q18 0 26 0 8-2 8-2z" fill="#f4625e" stroke="#f4625e"/>
  <path d="m633 418h5v2q0 2 1 2t-1 2q-2 1-2 2 0 2 0 3-1 1-1 1-1 0-1 1t-1 1h-1v-2h-1v-2l1-1v-1q0-1-1-4l-1-2h1v-1h1v-1h1z" fill="#b29560" stroke="#b29560"/>
  <path d="m525 206l-1 1q0 1-3 2-3 0-1 2 1 3 3 2 1 0 2-1 0-1 1-1h1q1 0 1 1v1l1 1q0 1 4 1 3 0 4-2 0-1 1-2t4-1h4t0 1h1l1 1q2 0 2 1 1 1 3 2t3 1h1v-1h1v-3h3v6l-1 1v1h1l5 1 6 1h-1l-3 1-3 1h-1l-1 1q-1 1-3 2t-4 1q-3 0-6 1-4 1-2 2 1 1 1 2-1 1-4 3l-4 2h-6v1h-1q0-1-4-1l-3-1v-1h-1v-1l-1-1v-1h-3q-3-1-6-1-4-1-4-3-1-2-4-3h-2v-1h-1v-1h-2v-1l-1-1v-2l3-1q3 0 5-4t2-5 1-1v-1l3-2q2-2 5-1t3 0 1 1zm-9 12h2q2 0 4 2 1 3-3 3-4-1-4-3t1-2z" fill="#dfab6f" stroke="#dfab6f"/>
  <path d="m429 281v-1l2 1q2 1 13 0 10-1 12-1h3v1h1v1h4v1q0 1-3 1t-15 1-15-1l-3-1h2q1-1 0-1t-1-1z" fill="#e0c4b8" stroke="#e0c4b8"/>
  <path d="m524 566h1l2 1q2 1 3 1h2t0 1q1 1-2 1l-3 1h-1q0-1-3-1h-3t-1-2l-1-1v-1t1 0v-1h2q1 0 2 0 0 1 1 1z" fill="#e0e0c3" stroke="#e0e0c3"/>
  <path d="m453 592l1-29 2 5q2 4 2 4l1 6q1 5 2 6v2t1 1l3 13q3 12 3 13v1h-2l-1 6q-1 5-1 8-2 4-2 8v3l1 1 1 1v1h1v1h1v2h-1l-1-1h-1v-1h-1v-2h-1v-1h-1v-1h-1v-1q-1 0-4-4l-3-5v-5q0-4 1-32z" fill="#6c5e47" stroke="#6c5e47"/>
  <path d="m554 271h1v2l23 3q23 4 30 4h7v1q0 1-1 1l-1 1h-3q-2-1-30-3l-27-2-1-1h-2l-3-1h-2v-1l3-1q4 0 5-1t1-2z" fill="#e3c3b3" stroke="#e3c3b3"/>
  <path d="m480 329l-1-3 13 2q12 2 17 3l5 1h9q3 0 7 1h4l2 1h4q5 0 9 1h4v1h1l2 1 3 1h-1v1q-1 1 2 2 4 1 3 2-1 0-1 2-1 2 0 3 2 1 2 3t0 7v4h-2q-2 0-4 2-1 2-2 2t-2-3q-2-2-4-2-3-1-4 3-2 3-2 2h-1v-1h-1v-1h-2v1h-2q-1-1-2-2 0-2-2-3-2 0-3 2t-3 2q-3 0-3-2l-1-1v-1h-1l-1-1h-1v6l1 6v1h2v1h-1v1h-1q-1 0-2-1 0-1-6 1-7 0-10 0h-4l-1-1v-1h-4v-1h-1v-1h1v-1h3q2 0 2-1t0-6q0-4-3-6l-4-3v-1h-1l-1-1-1-1h2v-3h-1v-1h-1q-1 0 0-3v-2h1v-1h-3q-3 0-4 1 0 1-2-1h-3l-1-1-1-1h-2l1-1q2 0 2-1l-1-2h-2v-2h2v1h1q0-1 2-1 1 0 0-3z" fill="#e3554e" stroke="#e3554e"/>
  <path d="m494 611v-2l10 2q10 3 12 3h2l7 10q7 9 9 21t2 13v4l1 2 1 1v4l1 3v2h-4l-3-1q-3-1-12-3l-10-2-1-1-1-1h-3v-1h3l3 1h1v-4q0-2-3-13-2-11-3-11t-5-12-5-12q-2 0-2-3z" fill="#514535" stroke="#514535"/>
  <path d="m627 383v5q-1 5-1 10v6h1v1h1v1h2v1h-2q-2 1-2 1t-2 0-3 2q-1 1-3 3l-3 3h-2v1l-1 1h-4q-3 0-4-1 0-1-3-1h-3q-1 0-2-1-2-1-3 1l-1 1q-1 1-2 0h-2v-2h-2l-1 1h-2v-3l1-1v-2l2-2q2-2 2-2l1-1 1-1h1v-1h1l2-4q2-4 9-9 8-6 13-7 4-1 5-1t3 0q3 0 3 1z" fill="#ea9841" stroke="#ea9841"/>
  <path d="m496 538l-1-24h3l5 2q5 2 6 3h1v1h2l2 1h1q0 1 1 1 0 1 0 3v8l1 1 1 1-1 1q-1 1-1 2v10l-1 2q-1 3 0 6l1 2v1h1v1h1v1h1v1h1v1q0 1-1 1v2q-1 0-1 0v1l-2 3q-2 2-1 4v2q-1 2-1 6v3l-1 1v1l1 7q0 6 1 8l1 2v3l1 1v1h-3l-2-1h-2q-1 0-14-6-14-4-18-6l-5-1v3q-1 0-1 2v3l-1 2-1 2v-2l-1-1-1-1v-4l-1-1q-1-1-1-2 0-2-2-6l-2-3v-1t-1 0v-2q-1-1-2-6l-1-6v-5q0-5-3-14l-2-9h1v-3h2q3-1 5 0 3 1 4 1t2 0h1v-4l1-5v-5h1v-1l1-1v-2h1l2 19q2 19 2 22v3l1 2v1l2 6q2 5 3 7 2 0 3 1l1 1h2v1h1v1h4l1-1h1v-1l1-1v-2l1-2v-3l1-1v-7q0-8-2-32z" fill="#e3383a" stroke="#e3383a"/>
  <path d="m664 640h1v2q-1 1-1 2-2 2-8 6l-7 4h-3v1h-1v1h-7l-2 1q-3 1-10 1h-7l1-1v-1h2v-1h-1v-1h1v-1h1v-1h3q2 0 4 0 3 0 6-5t6-7q4-2 9-1t5 2 3 1 4-1 1-1z" fill="#d9a27a" stroke="#d9a27a"/>
  <path d="m442 203v1h8q8 0 11 2 3 1 4 2 1 2 5 1 3-1 6-3 4-2 5-3h1v3q0 4 1 4h1v-1q0-1 2-2t2-1l2-1h1v1h-1v2q0 1 0 3v2h1v1h2l1 1 1 1h1q2 2 3 2t2 1 1 1v2l1 1v1h2v1h1v1h2q3 1 4 3 0 2 4 3 3 0 6 1h3v1l1 1v1h1v1h-11q-2 1-6 5l-4 5q-1 1-1 1h-1t-4 3-9 3h-9q-1 0-2-1v-1l-1-1q0-1-7-3l-7-2h-7q-7 0-10 2-3 0-6 3t-10 3l-8 1h-3l-3 1h-2q-1 0-2 2l-2 2t0-2q0-1-2-2h-4l-1-1h-1v-2h-1l-1-1h1l1-1q2-1 4-1h2l1-1 1-1h-2v-1h-1v-1h-1q-1 0-1-2-1-1-2-2h-2v-2l1-1v-1l4-4q3-4 4-6 2-1 3-2t1-3q1-1 4-2 2-1 2-3t6-4 7-4 3-4q2-1 2-2 1 0 2-1z" fill="#ea927e" stroke="#ea927e"/>
  <path d="m676 565l1-6h1q2 0 2 4v5q0 1-1 2 0 1-1 1-2-1-2-6z" fill="#c8b697" stroke="#c8b697"/>
  <path d="m577 540h4q1 1-1 14-1 13-4 12-4 0-4 0v-3q0-3 1-13 1-9 4-10z" fill="#927a44" stroke="#927a44"/>
  <path d="m592 596h3l1 1q0 1 1 1h1l1 1q1 1-1 7 0 6-1 9v3q-1 0-1 0v1q0 1-2 1-1 0-2-1v-1q0-1-1-1h-2q0-1-3-1h-3v-1q1 0 0-3v-3q1 0 1-1t1-1 1-1q0-2 3-6l3-3v-1z" fill="#8a8534" stroke="#8a8534"/>
  <path d="m605 540h4l-1 10q-2 11-2 12v2l-1 1v1h-5q-3 0-4-2l-2-2v-2h-1v-1q-1-1-1-1 0-1-2 4-2 4-3 4-2 0-1-12l1-12 1-1q0-1 1-1h3q2 1 2 4 2 2 2 4v1l1 1 1 1v1h1v-1h1v-2q0-2 1-5t4-4z" fill="#8e7647" stroke="#8e7647"/>
  <path d="m433 488v-1l3 17q4 16 4 19v3h1v-1h1v4h1v1h2q1 0 1 0v13q0 12 1 19v14h-2v-1h-1v-1h-1l-1-1h-1v4h-1v-3q0-2-7-40l-6-37h1v-4h1v-1h2v-1h1v-1l1-2z" fill="#e08a71" stroke="#e08a71"/>
  <path d="m479 566l1-3 1 5q1 5 2 7l1 2v1h2v1l1 1v1h2v-1l1-1v-4h1v-1h3v4h1v-1h1v2h1v2l-1 2v2l-1 1v1h-1l-1 1h-4v-1h-1v-1h-2l-1-1q-1-1-3-1-1-2-3-7l-2-6h1q0-1 0-1t1-4z" fill="#e1cdc4" stroke="#e1cdc4"/>
  <path d="m494 199l1-1h9v2h-1v1h-1q0 1 0 2-1 1-2 1l-2 1v-1t-1 0h-3q-2 0-2 1h-2l-2 1t-2 1-2 2v1h-1q-1 0-1-3l-1-3q1 0 1 0v-1h1l1-1h1l1-1q2-1 3-1h2q1 0 1 0v-1h2z" fill="#e2654f" stroke="#e2654f"/>
  <path d="m505 247h1v1q-1 2 0 2h1q-1 1-6 4l-6 4h-1t0 1q-1 1-1 1h-5q-1 0-3-2l-2-2h-5t2-1l2-1h9q5 0 9-3 4-2 4-3t1-1z" fill="#e3cec2" stroke="#e3cec2"/>
  <path d="m473 382v-1h1l2 1h6l1 1 1 1 3 5q3 5 3 7v1l2 1q0 2 1 2v1q0 1 1 1h1l1 1 1 1h1l2 2q2 3 3 3 0 1 1 1l1 4q1 4 2 5t1 5v6h-6q-1 0-9-2l-8-2q-1-1-1-1h-1q-1-1-6-1l-5-2h4l2-1 1-1h-1v-1t0-1-2-2-2-9q-1-6-4-7h-2 2q1 0 2-2 1 0 0-5v-7q0-3 1-4z" fill="#615243" stroke="#615243"/>
  <path d="m657 210v-1l9 2q8 1 12 2 3 1 4 3t2 2v2q0 1-9 18-9 18-11 24l-2 7-1 1-1 1v2h1v-1h1v6q0 2-4 8l-4 6v3h2l1 1h2l2 1q2 1 3 1v1q0 1-12 2l-13 1v2h2v1h-3q-2 0-2 1l-1 1v-1q-1 0-19-3l-18-3-2-1-1-1h1v-4h1v-1h1v-2h-1v-1h3q2 0 6 1h13l9-1h3v-1h1v-1h1v-1h1v-3h-1l-2-1-2-1h-2q-2 0-7-1l-5-1h-7q-7 0-30-4l-23-3v-4l3-3q2-2 3-4l1-1v-1l-1-1-1-1v-2h-2q-1 0-8-1l-6-1h-2v-1q0-1 1-5 1-3 0-4h-1v-1h-1v-1h-2v-1h-1v-1h-2v-1h10q9 0 9 3 0 4 1 4h2l5-3q5-3 7-3h5l-1 1v2l-2 3q0 2-1 3l-1 1v3h-1v1l5 2q5 2 12 4 8 0 11 0 3-1 5-3 2-3 6-6t4-3v-1h1v-1h2l1-1v1h1v-1h1v2h1v1q1 0 1 1t-1 1l-1 1h-1v1h1v3h2l3 1h4v-1h1l8-11q8-10 10-14 0-4 3-6t5-5 2-6 1-3z" fill="#eca082" stroke="#eca082"/>
  <path d="m682 521h1l2 1q3 0 1 6 0 6-4 9-3 3-3 4l-1 1q-2 1-2 3v2l-1 1-1 2-1 1-1 1h-3v-3l1-3v-3q0-3 1-7v-5q1 0 2-3l2-4 3-1q3-1 4-2z" fill="#ac9864" stroke="#ac9864"/>
  <path d="m543 258h3q1 0 4 0h2v7q0 1-1 1t-5 5q-3 4-2 4h1v1h2l3 1h2q0 1 0 1h1v1q0 1 0 2h-1q-2 1-2 1h-6q-5 0-6 1-1 0-1 2v2h-1q0-1-10 0h-10q0-1 2-1 1 0 2-3 1-2-8-2-10 1-10 5l1 4h-1q-1 0-4 2-4 2-4 2l1 1h-1q-1-1-4-1l-3-1h-2q-2-1-3-1 0-1 0-2l1-2q1 0 1-4v-5q-1-1 2-2t4-3 1-2h1v-1l1-1 1-1v-1h-4q-3 0-4-1l-1-1h-1l-2-1-1-1h9q1 0 1-1 1 0-1-1l-2-2h6v-1q0-1 0-1h2v4q1 2 3 1 1-1 2-1l1-1h1v1l-1 1v1h-2v1h-1v1h-1v2h1l1-1 1-1h2v2h2v1l1 1v-1h1v1h1v-1q0-1 1-1l1 1q0 1 7 1t8 1h2l1 1h3l4-6q5-5 5-6t1-1 1-1h1z" fill="#afa08b" stroke="#afa08b"/>
  <path d="m534 247h2v2h-1v1h-1v1t-1 0q0 1-3 2l-3 1v1h-2q-2 1-9 7l-7 6q-1 0-1 1v1h-1v-1h-1v1l-1-1v-1h-2v-2h-2l-1 1-1 1h-1v-2h1v-1h1v-1h1v-1q1 0 1-1 0 0 1 0v-1q0-1 4-4 3-4 3-6l-1-2 3-1q3-2 4-4 2-2 2-3h6q4 1 6 3 1 2 4 3z" fill="#aa9b85" stroke="#aa9b85"/>
  <path d="m448 449v-1h6q5 0 5 0h1v2q0 1-2 1-3 0-3 1v1h-1q0 1 0 1h-1q-1 0-2-2t-2-2-1-1z" fill="#7f715f" stroke="#7f715f"/>
  <path d="m446 543v-12l3 5q3 5 3 6v1l1 1 2 9q3 9 3 14v5t-2-4l-2-5v-1q0-1-2-4v-4h-1v-1h-1v-3l-1 2-1 2v15h-1v-7q-1-7-1-19z" fill="#d6a43f" stroke="#d6a43f"/>
  <path d="m471 446h4l1 1 1 1h3l2 1h1q0 1 1 1h1v1q1 1 1 2v1h-1q-1 0-1-1 0 0-5 1h-6q-1 0-3-4t1-4z" fill="#d1cac0" stroke="#d1cac0"/>
  <path d="m484 448h1q1 0 1 0v1l1 1q1 0 1 3 1 3 2 5 2 0 0 1h-4v-1h-2l-2-1q-1-1-4-2l-4-1h5q5-1 5-1 0 1 1 1h1v-1q0-1-1-2v-1h-1q-1 0-1-1h1q0-1 0-1z" fill="#a69b87" stroke="#a69b87"/>
  <path d="m521 365v-6h1l1 1h1v1l1 1q0 2 3 2 2 0 3-2t3-2q2 1 2 3 1 1 2 2h1v2l1 2v1l1 2v2q0 1-2 0-2 0-3 0h-1l-2 1q-2 0-3-3 0-3-2-3-3 0-4 1v2h-2v-1l-1-6z" fill="#a5573f" stroke="#a5573f"/>
  <path d="m416 256h2l3-1h3v2h-1l-1 1h-2v4h4q3 0 3 1h-1q-2 1-2 2l1 1h-1q-1 0-5-2h-4l-1-1q-2 0-2-1v-2l2-2q1-2 2-2z" fill="#e9cec4" stroke="#e9cec4"/>
  <path d="m498 398l13 3q13 3 20 7t8 6q1 1 1 6 0 6-2 7 0 1-1 1v1h-1v6h-2v-3l-1-1-1-1v2h-1l-1-1v-4q0-4 2-4 2-1 2-3v-4t-5-3-12-4l-7-2q0-1-6-2l-6-1h-1l-1-1-1-1h-1q-1 0-1-1h1q2 0 2-1t1-1q1-1 1-1z" fill="#efe1d9" stroke="#efe1d9"/>
  <path d="m455 465h4l5 1q4 1 3 4-1 2-1 5v3h1v1h1v2h1v1h1v3h-2l-1-1h-1q-2 0-4-3-1-2-2-2l-2-1h-3v1h-1v1h-1v1h-1v1t-1 0-2 1h-2v-1q-1 0-1 0 0-1-1-1v-1q-1 0-1 0 0-1-1-1v-1h-1v-1h-1v-1h-1v-2l-1-1-1-1v-3h1v1h1l1 1 1 1v2h4l2-4q3-4 7-5z" fill="#dddad3" stroke="#dddad3"/>
  <path d="m478 429h4q1 1 2 1h1l2 1q2 1 5 1h2v4h-1v1h-1v2h-1v1h-1v1h-1v1h-3q-2 0-10-1l-7-2v-1h-1v-1l-2-5q-1-5 4-4 6 0 8 1z" fill="#e9424b" stroke="#e9424b"/>
  <path d="m494 497v-1l10 3q9 3 14 2 4 0 4 1 1 2 3 2h2v1h1v1h1v1h1v6h-1v1h-2v1h-1v1h-1q-1 0-6 0h-8t-8-4l-8-4h-1l-1-1-1-1h-1 2q2 0 3 1h2v-3q0-3-2-4-2-2-2-3z" fill="#72614e" stroke="#72614e"/>
  <path d="m488 191h2v1h4l-1 1h-1v1q0 1 1 2h-1t0 2l-1 1h-1q0 1 0 1h-1q-1 0-3 1l-1 1h-1l-1 1h-1q-1 1-1 1h-1q-1 0-4 2t-6 3q-4 1-5-1-1-1-4-2-3-2-11-2h-8v-1h1l1-1h4l1-1 1-1 10-2q9-4 17-5t11-2z" fill="#ebae9a" stroke="#ebae9a"/>
  <path d="m728 301h6l4 1h-1v1h-1v1h-1q-1 0-3 2h-1v1h-1q-1 1-4 2t-20 7l-17 6t0-1q1 0-2-1h-2l-2-1-2-1h-3l1-1 1-1h2l-1-1h-1v-1h4l14-4q15-4 15-5l7-2q6-1 8-2z" fill="#ece2d8" stroke="#ece2d8"/>
  <path d="m472 351v-1h1l3 3q4 3 4 1t2-2q1 0 2 2 0 2 1 2h1v-1h1q0-1 1-1v3q0 3 0 6v3h-1q-1 0-1-1t-1-1-1 1-2 1-4-4q-2-2-3-1l-1 1v1h-1v-1h-1v-2q0-2 0-6v-3z" fill="#83382b" stroke="#83382b"/>
  <path d="m598 416v4q0 5-1 6l-1 1v4h-2v-4h-1q0-1 0-1-1-1-1-1v-8l1-1q1-2 3-1 1 1 2 1z" fill="#b57739" stroke="#b57739"/>
  <path d="m690 201l7 2q7 1 7 2h-2q-3 1-5 5l-3 4v2l-1 1v1q-1 0-2 4-1 3-8 16t-13 24l-6 10v2l-1 2-1 1v-5h-1v1h-1v-2l1-1 1-1 2-7q2-6 11-24 9-17 9-18v-2l3-6q3-6 3-8t0-3z" fill="#efce7b" stroke="#efce7b"/>
  <path d="m440 342v3h-1v-1q-1 0-1-2t-4-7q-3-5-4-4v1t-2-2q-1-3-2-3l-1-1h-2v7h-1v-9h-3v1h-1v1h-1v1h-1v1h-1v-6q1 0 1 0v-1l2-1q3 0 8 3 6 3 10 10 4 6 4 9z" fill="#ea706d" stroke="#ea706d"/>
 </g>
</svg>
